<mxfile host="65bd71144e">
    <diagram name="Page-1" id="aaaa8250-4180-3840-79b5-4cada1eebb92">
        <mxGraphModel dx="7308" dy="2118" grid="0" gridSize="10" guides="0" tooltips="1" connect="1" arrows="1" fold="1" page="0" pageScale="1" pageWidth="850" pageHeight="1100" background="#FFFFFF" math="0" shadow="0">
            <root>
                <mxCell id="0"/>
                <mxCell id="1" parent="0"/>
                <mxCell id="168" value="" style="verticalLabelPosition=bottom;html=1;verticalAlign=top;strokeWidth=1;align=center;outlineConnect=0;dashed=0;outlineConnect=0;shape=mxgraph.aws3d.application2;fillColor=#86E83A;strokeColor=#B0F373;aspect=fixed;" vertex="1" parent="1">
                    <mxGeometry x="-3080" y="2193" width="97.09" height="83" as="geometry"/>
                </mxCell>
                <mxCell id="80" value="" style="rhombus;whiteSpace=wrap;html=1;fillColor=#3490FF;strokeColor=none;fillStyle=solid;opacity=5;" vertex="1" parent="1">
                    <mxGeometry x="-1666" y="565" width="774.26" height="440" as="geometry"/>
                </mxCell>
                <mxCell id="86" value="" style="rhombus;whiteSpace=wrap;html=1;fillColor=#FF9933;strokeColor=none;fillStyle=solid;opacity=5;align=center;verticalAlign=middle;fontFamily=Helvetica;fontSize=12;fontColor=default;" vertex="1" parent="1">
                    <mxGeometry x="-1538" y="1543" width="1047" height="595" as="geometry"/>
                </mxCell>
                <mxCell id="65" value="" style="rhombus;whiteSpace=wrap;html=1;fillColor=#0FE200;strokeColor=none;fillStyle=solid;opacity=5;align=center;verticalAlign=middle;fontFamily=Helvetica;fontSize=12;" vertex="1" parent="1">
                    <mxGeometry x="-2266" y="772" width="794" height="451.22" as="geometry"/>
                </mxCell>
                <mxCell id="51" value="" style="rhombus;whiteSpace=wrap;html=1;fillColor=#7F00FF;strokeColor=none;fillStyle=solid;opacity=5;" vertex="1" parent="1">
                    <mxGeometry x="-1457" y="876" width="1047" height="595" as="geometry"/>
                </mxCell>
                <mxCell id="68" value="" style="verticalLabelPosition=bottom;html=1;verticalAlign=top;strokeWidth=1;dashed=0;shape=mxgraph.aws3d.arrowhead;aspect=fixed;shadow=0;comic=0;fillColor=none;fontFamily=Verdana;fontSize=12;fontColor=#000000;flipV=0;direction=west;rounded=0;strokeColor=light-dark(#e3e3e3, #5a5555);flipH=1;" vertex="1" parent="1">
                    <mxGeometry x="-1106" y="1106" width="39" height="23" as="geometry"/>
                </mxCell>
                <mxCell id="54" value="" style="rhombus;whiteSpace=wrap;html=1;fillColor=#FF9933;strokeColor=none;fillStyle=solid;opacity=5;align=center;verticalAlign=middle;fontFamily=Helvetica;fontSize=12;fontColor=default;" vertex="1" parent="1">
                    <mxGeometry x="-2061" y="1245" width="1047" height="595" as="geometry"/>
                </mxCell>
                <mxCell id="34" value="" style="verticalLabelPosition=bottom;html=1;verticalAlign=top;strokeWidth=1;dashed=0;shape=mxgraph.aws3d.flatDoubleEdge;fillColor=#000000;aspect=fixed;shadow=0;comic=0;fontFamily=Verdana;fontSize=12;flipV=1;direction=west;flipH=1;rounded=0;" vertex="1" parent="1">
                    <mxGeometry x="-1122" y="1197" width="296.34" height="169" as="geometry"/>
                </mxCell>
                <mxCell id="1a8abee3a6cfdf20-3" value="" style="edgeStyle=isometricEdgeStyle;endArrow=none;html=1;labelBackgroundColor=none;strokeWidth=5;fontFamily=Verdana;fontSize=12;startArrow=none;rounded=0;strokeColor=#000000;" parent="1" source="1a8abee3a6cfdf20-25" edge="1">
                    <mxGeometry width="50" height="100" relative="1" as="geometry">
                        <mxPoint x="-2127.5" y="1560" as="sourcePoint"/>
                        <mxPoint x="-2197.5" y="1750" as="targetPoint"/>
                        <Array as="points">
                            <mxPoint x="-2187.5" y="1640"/>
                        </Array>
                    </mxGeometry>
                </mxCell>
                <mxCell id="qrv_AutaITu0o9wcxWjF-9" value="" style="edgeStyle=isometricEdgeStyle;endArrow=none;html=1;labelBackgroundColor=none;strokeWidth=5;fontFamily=Verdana;fontSize=12;startArrow=none;entryX=0.734;entryY=0.34;entryDx=0;entryDy=0;entryPerimeter=0;rounded=0;strokeColor=#000000;" parent="1" target="1a8abee3a6cfdf20-1" edge="1">
                    <mxGeometry width="50" height="100" relative="1" as="geometry">
                        <mxPoint x="-1856" y="1690" as="sourcePoint"/>
                        <mxPoint x="-1998.22" y="1790.4600000000005" as="targetPoint"/>
                        <Array as="points">
                            <mxPoint x="-2007.5" y="1750"/>
                        </Array>
                    </mxGeometry>
                </mxCell>
                <mxCell id="1a8abee3a6cfdf20-1" value="" style="verticalLabelPosition=bottom;html=1;verticalAlign=top;strokeWidth=1;dashed=0;shape=mxgraph.aws3d.secureConnection;fillColor=#000000;strokeColor=#ffffff;aspect=fixed;shadow=0;comic=0;fontSize=12;rounded=0;" parent="1" vertex="1">
                    <mxGeometry x="-2137.5" y="1680" width="56.99999999999999" height="34" as="geometry"/>
                </mxCell>
                <mxCell id="1a8abee3a6cfdf20-25" value="" style="verticalLabelPosition=bottom;html=1;verticalAlign=top;strokeWidth=1;dashed=0;shape=mxgraph.aws3d.arrowhead;aspect=fixed;shadow=0;comic=0;fillColor=none;fontFamily=Verdana;fontSize=12;fontColor=#000000;flipV=1;direction=west;rounded=0;" parent="1" vertex="1">
                    <mxGeometry x="-2002" y="1129" width="39" height="23" as="geometry"/>
                </mxCell>
                <mxCell id="qrv_AutaITu0o9wcxWjF-88" value="" style="endArrow=none;html=1;labelBackgroundColor=none;strokeWidth=5;fontFamily=Verdana;fontSize=12;startArrow=none;entryX=0.276;entryY=0.273;entryDx=0;entryDy=0;entryPerimeter=0;exitX=1.027;exitY=0.332;exitDx=0;exitDy=0;exitPerimeter=0;rounded=0;strokeColor=#E3E3E3;" parent="1" source="1a8abee3a6cfdf20-6" target="qrv_AutaITu0o9wcxWjF-26" edge="1">
                    <mxGeometry width="50" height="100" relative="1" as="geometry">
                        <mxPoint x="-1800" y="1720" as="sourcePoint"/>
                        <mxPoint x="-1750" y="1687" as="targetPoint"/>
                        <Array as="points">
                            <mxPoint x="-1690" y="1600"/>
                            <mxPoint x="-1780" y="1550"/>
                        </Array>
                    </mxGeometry>
                </mxCell>
                <mxCell id="qrv_AutaITu0o9wcxWjF-93" value="" style="endArrow=none;html=1;labelBackgroundColor=none;strokeWidth=5;fontFamily=Verdana;fontSize=12;startArrow=none;entryX=0.666;entryY=0.669;entryDx=0;entryDy=0;entryPerimeter=0;exitX=0.665;exitY=0.664;exitDx=0;exitDy=0;exitPerimeter=0;rounded=0;strokeColor=#E3E3E3;" parent="1" source="qrv_AutaITu0o9wcxWjF-26" target="qrv_AutaITu0o9wcxWjF-92" edge="1">
                    <mxGeometry width="50" height="100" relative="1" as="geometry">
                        <mxPoint x="-1691" y="1600" as="sourcePoint"/>
                        <mxPoint x="-1575.9941199999998" y="1627.96" as="targetPoint"/>
                        <Array as="points">
                            <mxPoint x="-1610" y="1650"/>
                        </Array>
                    </mxGeometry>
                </mxCell>
                <mxCell id="qrv_AutaITu0o9wcxWjF-103" value="" style="edgeStyle=isometricEdgeStyle;endArrow=none;html=1;labelBackgroundColor=none;strokeWidth=5;fontFamily=Verdana;fontSize=12;startArrow=none;entryX=0.734;entryY=0.34;entryDx=0;entryDy=0;entryPerimeter=0;exitX=0.997;exitY=1.217;exitDx=0;exitDy=0;exitPerimeter=0;rounded=0;strokeColor=#E3E3E3;dashed=1;dashPattern=8 8;" parent="1" source="qrv_AutaITu0o9wcxWjF-104" edge="1">
                    <mxGeometry width="50" height="100" relative="1" as="geometry">
                        <mxPoint x="-1230" y="2040" as="sourcePoint"/>
                        <mxPoint x="-1979.6620000000003" y="1760.56" as="targetPoint"/>
                        <Array as="points">
                            <mxPoint x="-1891.5" y="1819"/>
                        </Array>
                    </mxGeometry>
                </mxCell>
                <mxCell id="qrv_AutaITu0o9wcxWjF-113" value="ELB" style="text;html=1;strokeColor=none;fillColor=none;align=center;verticalAlign=middle;whiteSpace=wrap;fontStyle=3;fontSize=20;fontColor=#CCCCCC;rotation=30;rounded=0;" parent="1" vertex="1">
                    <mxGeometry x="-1299.5100000000002" y="2043" width="187.5" height="30" as="geometry"/>
                </mxCell>
                <mxCell id="qrv_AutaITu0o9wcxWjF-57" value="" style="verticalLabelPosition=bottom;html=1;verticalAlign=top;strokeWidth=1;align=center;outlineConnect=0;dashed=0;outlineConnect=0;shape=mxgraph.aws3d.snapshot;fillColor=#4286c5;strokeColor=#57A2D8;aspect=fixed;rounded=0;" parent="1" vertex="1">
                    <mxGeometry x="-1329.92" y="1140" width="92" height="60" as="geometry"/>
                </mxCell>
                <mxCell id="qrv_AutaITu0o9wcxWjF-53" value="" style="verticalLabelPosition=bottom;html=1;verticalAlign=top;strokeWidth=1;dashed=0;shape=mxgraph.aws3d.dashedArrowlessEdge;fillColor=#000000;aspect=fixed;shadow=0;comic=0;fontFamily=Verdana;fontSize=12;fontColor=#000000;flipV=1;rounded=0;" parent="1" vertex="1">
                    <mxGeometry x="-1269.65" y="802" width="318.35" height="181" as="geometry"/>
                </mxCell>
                <mxCell id="qrv_AutaITu0o9wcxWjF-50" value="" style="verticalLabelPosition=bottom;html=1;verticalAlign=top;strokeWidth=1;dashed=0;shape=mxgraph.aws3d.dashedArrowlessEdge;fillColor=#000000;aspect=fixed;shadow=0;comic=0;fontFamily=Verdana;fontSize=12;fontColor=#000000;flipV=1;rounded=0;" parent="1" vertex="1">
                    <mxGeometry x="-1588" y="615" width="318.35" height="181" as="geometry"/>
                </mxCell>
                <mxCell id="1a8abee3a6cfdf20-38" value="" style="verticalLabelPosition=bottom;html=1;verticalAlign=top;strokeWidth=1;dashed=0;shape=mxgraph.aws3d.flatDoubleEdge;fillColor=#000000;aspect=fixed;shadow=0;comic=0;fontFamily=Verdana;fontSize=12;flipV=1;direction=west;flipH=1;rounded=0;" parent="1" vertex="1">
                    <mxGeometry x="-1750" y="1390.43" width="420.08" height="239.57" as="geometry"/>
                </mxCell>
                <mxCell id="1a8abee3a6cfdf20-6" value="" style="verticalLabelPosition=bottom;html=1;verticalAlign=top;strokeWidth=1;dashed=0;shape=mxgraph.aws3d.elasticLoadBalancing;fillColor=#ECECEC;strokeColor=#5E5E5E;aspect=fixed;shadow=0;comic=0;fontSize=12;rounded=0;" parent="1" vertex="1">
                    <mxGeometry x="-1817.5" y="1590" width="92" height="88.17" as="geometry"/>
                </mxCell>
                <mxCell id="1a8abee3a6cfdf20-30" value="" style="verticalLabelPosition=bottom;html=1;verticalAlign=top;strokeWidth=1;dashed=0;shape=mxgraph.aws3d.dashedEdgeDouble;fillColor=#000000;aspect=fixed;shadow=0;comic=0;fontFamily=Verdana;fontSize=12;flipV=1;rounded=0;" parent="1" vertex="1">
                    <mxGeometry x="-1313.25" y="1302.33" width="169.95" height="97.67" as="geometry"/>
                </mxCell>
                <mxCell id="d5ac148becb70bc-10" value="" style="verticalLabelPosition=bottom;html=1;verticalAlign=top;strokeWidth=1;dashed=0;shape=mxgraph.aws3d.dashedArrowlessEdge;fillColor=#000000;aspect=fixed;shadow=0;comic=0;fontFamily=Verdana;fontSize=12;fontColor=#000000;flipV=1;rounded=0;" parent="1" vertex="1">
                    <mxGeometry x="-1868" y="1280" width="318.35" height="181" as="geometry"/>
                </mxCell>
                <mxCell id="qrv_AutaITu0o9wcxWjF-1" value="" style="verticalLabelPosition=bottom;html=1;verticalAlign=top;strokeWidth=1;align=center;outlineConnect=0;dashed=0;outlineConnect=0;shape=mxgraph.aws3d.end_user;strokeColor=none;fillColor=#777777;aspect=fixed;rounded=0;" parent="1" vertex="1">
                    <mxGeometry x="-2406" y="1803" width="49" height="100.46" as="geometry"/>
                </mxCell>
                <mxCell id="qrv_AutaITu0o9wcxWjF-7" value="" style="verticalLabelPosition=bottom;html=1;verticalAlign=top;strokeWidth=1;align=center;outlineConnect=0;dashed=0;outlineConnect=0;shape=mxgraph.aws3d.s3Bucket;fillColor=#4286c5;strokeColor=#57A2D8;aspect=fixed;rounded=0;" parent="1" vertex="1">
                    <mxGeometry x="-1309.65" y="836.8" width="61.5" height="63.800000000000004" as="geometry"/>
                </mxCell>
                <mxCell id="qrv_AutaITu0o9wcxWjF-10" value="" style="verticalLabelPosition=bottom;html=1;verticalAlign=top;strokeWidth=1;dashed=0;shape=mxgraph.aws3d.arrowhead;aspect=fixed;shadow=0;comic=0;fillColor=none;fontFamily=Verdana;fontSize=12;fontColor=#000000;flipV=1;direction=west;rounded=0;" parent="1" vertex="1">
                    <mxGeometry x="-1856.5" y="1667" width="39" height="23" as="geometry"/>
                </mxCell>
                <mxCell id="qrv_AutaITu0o9wcxWjF-14" value="" style="verticalLabelPosition=bottom;html=1;verticalAlign=top;strokeWidth=1;align=center;outlineConnect=0;dashed=0;outlineConnect=0;shape=mxgraph.aws3d.ami2;aspect=fixed;fillColor=#FF9900;strokeColor=#ffffff;rounded=0;" parent="1" vertex="1">
                    <mxGeometry x="-1460" y="1642.17" width="53.28" height="36" as="geometry"/>
                </mxCell>
                <mxCell id="qrv_AutaITu0o9wcxWjF-17" value="" style="verticalLabelPosition=bottom;html=1;verticalAlign=top;strokeWidth=1;align=center;outlineConnect=0;dashed=0;outlineConnect=0;shape=mxgraph.aws3d.application_server;fillColor=#ECECEC;strokeColor=#5E5E5E;aspect=fixed;rounded=0;" parent="1" vertex="1">
                    <mxGeometry x="-1700" y="1370" width="123" height="124" as="geometry"/>
                </mxCell>
                <mxCell id="qrv_AutaITu0o9wcxWjF-16" value="" style="verticalLabelPosition=bottom;html=1;verticalAlign=top;strokeWidth=1;align=center;outlineConnect=0;dashed=0;outlineConnect=0;shape=mxgraph.aws3d.application_server;fillColor=#ECECEC;strokeColor=#5E5E5E;aspect=fixed;rounded=0;" parent="1" vertex="1">
                    <mxGeometry x="-1610" y="1419" width="123" height="124" as="geometry"/>
                </mxCell>
                <mxCell id="qrv_AutaITu0o9wcxWjF-15" value="" style="verticalLabelPosition=bottom;html=1;verticalAlign=top;strokeWidth=1;align=center;outlineConnect=0;dashed=0;outlineConnect=0;shape=mxgraph.aws3d.application_server;fillColor=#ECECEC;strokeColor=#5E5E5E;aspect=fixed;rounded=0;" parent="1" vertex="1">
                    <mxGeometry x="-1520" y="1470" width="123" height="124" as="geometry"/>
                </mxCell>
                <mxCell id="qrv_AutaITu0o9wcxWjF-18" value="" style="verticalLabelPosition=bottom;html=1;verticalAlign=top;strokeWidth=1;align=center;outlineConnect=0;dashed=0;outlineConnect=0;shape=mxgraph.aws3d.s3;fillColor=#ECECEC;strokeColor=#5E5E5E;aspect=fixed;rounded=0;" parent="1" vertex="1">
                    <mxGeometry x="-1458.8000000000002" y="610" width="231.5" height="239" as="geometry"/>
                </mxCell>
                <mxCell id="qrv_AutaITu0o9wcxWjF-21" value="" style="verticalLabelPosition=bottom;html=1;verticalAlign=top;strokeWidth=1;align=center;outlineConnect=0;dashed=0;outlineConnect=0;shape=mxgraph.aws3d.s3Bucket;fillColor=#4286c5;strokeColor=#57A2D8;aspect=fixed;rounded=0;" parent="1" vertex="1">
                    <mxGeometry x="-1199.65" y="773" width="61.5" height="63.800000000000004" as="geometry"/>
                </mxCell>
                <mxCell id="qrv_AutaITu0o9wcxWjF-23" value="" style="verticalLabelPosition=bottom;html=1;verticalAlign=top;strokeWidth=1;align=center;outlineConnect=0;dashed=0;outlineConnect=0;shape=mxgraph.aws3d.snapshot;fillColor=#4286c5;strokeColor=#57A2D8;aspect=fixed;rounded=0;" parent="1" vertex="1">
                    <mxGeometry x="-865" y="1238" width="92" height="60" as="geometry"/>
                </mxCell>
                <UserObject label="" tooltip="Route 53" id="qrv_AutaITu0o9wcxWjF-24">
                    <mxCell style="verticalLabelPosition=bottom;html=1;verticalAlign=top;strokeWidth=1;align=center;outlineConnect=0;dashed=0;outlineConnect=0;shape=mxgraph.aws3d.route53;fillColor=#ECECEC;strokeColor=#5E5E5E;aspect=fixed;rounded=0;" parent="1" vertex="1">
                        <mxGeometry x="-2096.87" y="1573" width="117.17" height="134.4" as="geometry"/>
                    </mxCell>
                </UserObject>
                <mxCell id="qrv_AutaITu0o9wcxWjF-26" value="" style="verticalLabelPosition=bottom;html=1;verticalAlign=top;strokeWidth=1;dashed=0;shape=mxgraph.aws3d.dashedArrowlessEdge;aspect=fixed;shadow=0;comic=0;fontFamily=Verdana;fontSize=12;rounded=0;" parent="1" vertex="1">
                    <mxGeometry x="-1856.5000000000002" y="1467.4" width="421.18" height="240" as="geometry"/>
                </mxCell>
                <mxCell id="qrv_AutaITu0o9wcxWjF-27" value="" style="verticalLabelPosition=bottom;html=1;verticalAlign=top;strokeWidth=1;dashed=0;shape=mxgraph.aws3d.dashedArrowlessEdge;aspect=fixed;shadow=0;comic=0;fontFamily=Verdana;fontSize=12;rounded=0;" parent="1" vertex="1">
                    <mxGeometry x="-1540" y="1282.7" width="562.1" height="320.3" as="geometry"/>
                </mxCell>
                <mxCell id="qrv_AutaITu0o9wcxWjF-28" value="" style="verticalLabelPosition=bottom;html=1;verticalAlign=top;strokeWidth=1;dashed=0;shape=mxgraph.aws3d.dashedArrowlessEdge;aspect=fixed;shadow=0;comic=0;fontFamily=Verdana;fontSize=12;flipV=1;rounded=0;" parent="1" vertex="1">
                    <mxGeometry x="-875" y="1847" width="313.47" height="178.77" as="geometry"/>
                </mxCell>
                <mxCell id="qrv_AutaITu0o9wcxWjF-29" value="" style="verticalLabelPosition=bottom;html=1;verticalAlign=top;strokeWidth=1;align=center;outlineConnect=0;dashed=0;outlineConnect=0;shape=mxgraph.aws3d.vpcGateway;fillColor=#ECECEC;strokeColor=#5E5E5E;aspect=fixed;rounded=0;" parent="1" vertex="1">
                    <mxGeometry x="-1303.02" y="1292.8" width="116.7" height="102.8" as="geometry"/>
                </mxCell>
                <mxCell id="qrv_AutaITu0o9wcxWjF-31" value="" style="verticalLabelPosition=bottom;html=1;verticalAlign=top;strokeWidth=1;align=center;outlineConnect=0;dashed=0;outlineConnect=0;shape=mxgraph.aws3d.application;fillColor=#4286c5;strokeColor=#57A2D8;aspect=fixed;rounded=0;" parent="1" vertex="1">
                    <mxGeometry x="-1690" y="1490" width="41.45" height="46" as="geometry"/>
                </mxCell>
                <mxCell id="qrv_AutaITu0o9wcxWjF-34" value="" style="verticalLabelPosition=bottom;html=1;verticalAlign=top;strokeWidth=1;dashed=0;shape=mxgraph.aws3d.dashedArrowlessEdge;fillColor=#000000;aspect=fixed;shadow=0;comic=0;fontFamily=Verdana;fontSize=12;fontColor=#000000;flipV=1;rounded=0;" parent="1" vertex="1">
                    <mxGeometry x="-1366.44" y="928" width="422.48" height="240.2" as="geometry"/>
                </mxCell>
                <mxCell id="qrv_AutaITu0o9wcxWjF-35" value="" style="verticalLabelPosition=bottom;html=1;verticalAlign=top;strokeWidth=1;dashed=0;shape=mxgraph.aws3d.dashedArrowlessEdge;aspect=fixed;shadow=0;comic=0;fontFamily=Verdana;fontSize=12;rounded=0;" parent="1" vertex="1">
                    <mxGeometry x="-1354.9400000000003" y="1174.6000000000001" width="421.18" height="240" as="geometry"/>
                </mxCell>
                <mxCell id="qrv_AutaITu0o9wcxWjF-36" value="" style="verticalLabelPosition=bottom;html=1;verticalAlign=top;strokeWidth=1;dashed=0;shape=mxgraph.aws3d.dashedArrowlessEdge;aspect=fixed;shadow=0;comic=0;fontFamily=Verdana;fontSize=12;rounded=0;" parent="1" vertex="1">
                    <mxGeometry x="-935" y="928" width="430.82" height="244.47" as="geometry"/>
                </mxCell>
                <mxCell id="qrv_AutaITu0o9wcxWjF-37" value="" style="verticalLabelPosition=bottom;html=1;verticalAlign=top;strokeWidth=1;dashed=0;shape=mxgraph.aws3d.dashedArrowlessEdge;aspect=fixed;shadow=0;comic=0;fontFamily=Verdana;fontSize=12;flipV=1;rounded=0;" parent="1" vertex="1">
                    <mxGeometry x="-930" y="1175" width="424.1" height="241.86" as="geometry"/>
                </mxCell>
                <mxCell id="qrv_AutaITu0o9wcxWjF-39" value="" style="verticalLabelPosition=bottom;html=1;verticalAlign=top;strokeWidth=1;align=center;outlineConnect=0;dashed=0;outlineConnect=0;shape=mxgraph.aws3d.rdsMaster;fillColor=#ECECEC;strokeColor=#5E5E5E;aspect=fixed;rounded=0;" parent="1" vertex="1">
                    <mxGeometry x="-1225.24" y="1080" width="123" height="133" as="geometry"/>
                </mxCell>
                <mxCell id="qrv_AutaITu0o9wcxWjF-40" value="" style="verticalLabelPosition=bottom;html=1;verticalAlign=top;strokeWidth=1;align=center;outlineConnect=0;dashed=0;outlineConnect=0;shape=mxgraph.aws3d.rdsSlave;fillColor=#ECECEC;strokeColor=#5E5E5E;aspect=fixed;rounded=0;" parent="1" vertex="1">
                    <mxGeometry x="-1078.76" y="1162" width="123" height="133" as="geometry"/>
                </mxCell>
                <mxCell id="qrv_AutaITu0o9wcxWjF-43" value="" style="verticalLabelPosition=bottom;html=1;verticalAlign=top;strokeWidth=1;align=center;outlineConnect=0;dashed=0;outlineConnect=0;shape=mxgraph.aws3d.file;aspect=fixed;strokeColor=#2d6195;fillColor=#ffffff;rounded=0;" parent="1" vertex="1">
                    <mxGeometry x="-1158.2200000000003" y="837" width="20.07" height="46" as="geometry"/>
                </mxCell>
                <mxCell id="qrv_AutaITu0o9wcxWjF-51" value="" style="verticalLabelPosition=bottom;html=1;verticalAlign=top;strokeWidth=1;dashed=0;shape=mxgraph.aws3d.dashedArrowlessEdge;aspect=fixed;shadow=0;comic=0;fontFamily=Verdana;fontSize=12;rounded=0;" parent="1" vertex="1">
                    <mxGeometry x="-1588" y="804.1600000000001" width="313.85" height="178.84" as="geometry"/>
                </mxCell>
                <mxCell id="qrv_AutaITu0o9wcxWjF-52" value="" style="verticalLabelPosition=bottom;html=1;verticalAlign=top;strokeWidth=1;dashed=0;shape=mxgraph.aws3d.dashedArrowlessEdge;aspect=fixed;shadow=0;comic=0;fontFamily=Verdana;fontSize=12;rounded=0;" parent="1" vertex="1">
                    <mxGeometry x="-1269.65" y="616.0800000000002" width="313.85" height="178.84" as="geometry"/>
                </mxCell>
                <UserObject label="" tooltip="Cloudfront" id="qrv_AutaITu0o9wcxWjF-8">
                    <mxCell style="verticalLabelPosition=bottom;html=1;verticalAlign=top;strokeWidth=1;align=center;outlineConnect=0;dashed=0;outlineConnect=0;shape=mxgraph.aws3d.cloudfront;fillColor=#ECECEC;strokeColor=#5E5E5E;aspect=fixed;rounded=0;" parent="1" vertex="1">
                        <mxGeometry x="-2297" y="1651" width="103.8" height="169.79999999999998" as="geometry"/>
                    </mxCell>
                </UserObject>
                <mxCell id="qrv_AutaITu0o9wcxWjF-42" value="" style="verticalLabelPosition=bottom;html=1;verticalAlign=top;strokeWidth=1;align=center;outlineConnect=0;dashed=0;outlineConnect=0;shape=mxgraph.aws3d.rdsSlave;fillColor=#ECECEC;strokeColor=#5E5E5E;aspect=fixed;rounded=0;" parent="1" vertex="1">
                    <mxGeometry x="-995" y="1208" width="123" height="133" as="geometry"/>
                </mxCell>
                <mxCell id="qrv_AutaITu0o9wcxWjF-58" value="VPC" style="text;html=1;strokeColor=none;fillColor=none;align=center;verticalAlign=middle;whiteSpace=wrap;fontStyle=3;fontSize=40;fontColor=#FF9933;rotation=30;rounded=0;" parent="1" vertex="1">
                    <mxGeometry x="-1520" y="1690" width="60" height="30" as="geometry"/>
                </mxCell>
                <mxCell id="qrv_AutaITu0o9wcxWjF-59" value="" style="verticalLabelPosition=bottom;html=1;verticalAlign=top;strokeWidth=1;dashed=0;shape=mxgraph.aws3d.flatDoubleEdge;fillColor=#000000;aspect=fixed;shadow=0;comic=0;fontFamily=Verdana;fontSize=12;flipV=1;direction=west;flipH=1;rounded=0;" parent="1" vertex="1">
                    <mxGeometry x="-1185.02" y="1720.43" width="420.08" height="239.57" as="geometry"/>
                </mxCell>
                <mxCell id="qrv_AutaITu0o9wcxWjF-61" value="" style="verticalLabelPosition=bottom;html=1;verticalAlign=top;strokeWidth=1;align=center;outlineConnect=0;dashed=0;outlineConnect=0;shape=mxgraph.aws3d.ami2;aspect=fixed;fillColor=#FF9900;strokeColor=#ffffff;rounded=0;" parent="1" vertex="1">
                    <mxGeometry x="-895.02" y="1972.17" width="53.28" height="36" as="geometry"/>
                </mxCell>
                <mxCell id="qrv_AutaITu0o9wcxWjF-62" value="" style="verticalLabelPosition=bottom;html=1;verticalAlign=top;strokeWidth=1;align=center;outlineConnect=0;dashed=0;outlineConnect=0;shape=mxgraph.aws3d.application_server;fillColor=#ECECEC;strokeColor=#5E5E5E;aspect=fixed;rounded=0;" parent="1" vertex="1">
                    <mxGeometry x="-1135.02" y="1700" width="123" height="124" as="geometry"/>
                </mxCell>
                <mxCell id="qrv_AutaITu0o9wcxWjF-63" value="" style="verticalLabelPosition=bottom;html=1;verticalAlign=top;strokeWidth=1;align=center;outlineConnect=0;dashed=0;outlineConnect=0;shape=mxgraph.aws3d.application_server;fillColor=#ECECEC;strokeColor=#5E5E5E;aspect=fixed;rounded=0;" parent="1" vertex="1">
                    <mxGeometry x="-1045.02" y="1749" width="123" height="124" as="geometry"/>
                </mxCell>
                <mxCell id="qrv_AutaITu0o9wcxWjF-64" value="" style="verticalLabelPosition=bottom;html=1;verticalAlign=top;strokeWidth=1;align=center;outlineConnect=0;dashed=0;outlineConnect=0;shape=mxgraph.aws3d.application_server;fillColor=#ECECEC;strokeColor=#5E5E5E;aspect=fixed;rounded=0;" parent="1" vertex="1">
                    <mxGeometry x="-955.02" y="1800" width="123" height="124" as="geometry"/>
                </mxCell>
                <mxCell id="qrv_AutaITu0o9wcxWjF-68" value="" style="verticalLabelPosition=bottom;html=1;verticalAlign=top;strokeWidth=1;align=center;outlineConnect=0;dashed=0;outlineConnect=0;shape=mxgraph.aws3d.application;fillColor=#4286c5;strokeColor=#57A2D8;aspect=fixed;rounded=0;" parent="1" vertex="1">
                    <mxGeometry x="-1125.02" y="1820" width="41.45" height="46" as="geometry"/>
                </mxCell>
                <mxCell id="qrv_AutaITu0o9wcxWjF-72" value="VPC peering" style="text;html=1;strokeColor=none;fillColor=none;align=center;verticalAlign=middle;whiteSpace=wrap;fontStyle=3;fontSize=12;fontColor=#A9C4EB;rotation=30;rounded=0;" parent="1" vertex="1">
                    <mxGeometry x="-1305" y="1389" width="142.24" height="30" as="geometry"/>
                </mxCell>
                <mxCell id="qrv_AutaITu0o9wcxWjF-75" value="" style="verticalLabelPosition=bottom;html=1;verticalAlign=top;strokeWidth=1;align=center;outlineConnect=0;dashed=0;outlineConnect=0;shape=mxgraph.aws3d.lambda;fillColor=#ECECEC;strokeColor=#5E5E5E;aspect=fixed;fontSize=12;fontColor=#0066CC;rounded=0;" parent="1" vertex="1">
                    <mxGeometry x="-1274" y="1463.9999999999998" width="52" height="61.89" as="geometry"/>
                </mxCell>
                <mxCell id="qrv_AutaITu0o9wcxWjF-78" value="S3" style="text;html=1;strokeColor=none;fillColor=none;align=center;verticalAlign=middle;whiteSpace=wrap;fontStyle=3;fontSize=40;fontColor=#7EA6E0;rotation=-30;rounded=0;" parent="1" vertex="1">
                    <mxGeometry x="-1595" y="740.9999999999999" width="60" height="30" as="geometry"/>
                </mxCell>
                <mxCell id="qrv_AutaITu0o9wcxWjF-79" value="Aurora" style="text;html=1;strokeColor=none;fillColor=none;align=center;verticalAlign=middle;whiteSpace=wrap;fontStyle=3;fontSize=40;fontColor=#7EA6E0;rotation=30;rounded=0;" parent="1" vertex="1">
                    <mxGeometry x="-1038" y="1380" width="60" height="30" as="geometry"/>
                </mxCell>
                <mxCell id="qrv_AutaITu0o9wcxWjF-91" value="" style="endArrow=none;html=1;labelBackgroundColor=none;strokeWidth=5;fontFamily=Verdana;fontSize=12;startArrow=none;entryX=0.466;entryY=0.476;entryDx=0;entryDy=0;entryPerimeter=0;rounded=0;strokeColor=#E3E3E3;" parent="1" target="qrv_AutaITu0o9wcxWjF-26" edge="1">
                    <mxGeometry width="50" height="100" relative="1" as="geometry">
                        <mxPoint x="-1690" y="1600" as="sourcePoint"/>
                        <mxPoint x="-1588.4041200000001" y="1670.1300000000003" as="targetPoint"/>
                    </mxGeometry>
                </mxCell>
                <mxCell id="qrv_AutaITu0o9wcxWjF-98" value="" style="verticalLabelPosition=bottom;html=1;verticalAlign=top;strokeWidth=1;dashed=0;shape=mxgraph.aws3d.elasticLoadBalancing;fillColor=#ECECEC;strokeColor=#5E5E5E;aspect=fixed;shadow=0;comic=0;fontSize=12;rounded=0;" parent="1" vertex="1">
                    <mxGeometry x="-1230" y="1931.83" width="92" height="88.17" as="geometry"/>
                </mxCell>
                <mxCell id="qrv_AutaITu0o9wcxWjF-99" value="" style="endArrow=none;html=1;labelBackgroundColor=none;strokeWidth=5;fontFamily=Verdana;fontSize=12;startArrow=none;entryX=0.276;entryY=0.273;entryDx=0;entryDy=0;entryPerimeter=0;exitX=1.027;exitY=0.332;exitDx=0;exitDy=0;exitPerimeter=0;rounded=0;strokeColor=#E3E3E3;" parent="1" source="qrv_AutaITu0o9wcxWjF-98" edge="1">
                    <mxGeometry width="50" height="100" relative="1" as="geometry">
                        <mxPoint x="-1212.5" y="2061.83" as="sourcePoint"/>
                        <mxPoint x="-1152.75432" y="1874.75" as="targetPoint"/>
                        <Array as="points">
                            <mxPoint x="-1102.5" y="1941.83"/>
                            <mxPoint x="-1192.5" y="1891.83"/>
                        </Array>
                    </mxGeometry>
                </mxCell>
                <mxCell id="qrv_AutaITu0o9wcxWjF-100" value="" style="endArrow=none;html=1;labelBackgroundColor=none;strokeWidth=5;fontFamily=Verdana;fontSize=12;startArrow=none;entryX=0.466;entryY=0.476;entryDx=0;entryDy=0;entryPerimeter=0;rounded=0;strokeColor=#E3E3E3;" parent="1" edge="1">
                    <mxGeometry width="50" height="100" relative="1" as="geometry">
                        <mxPoint x="-1102.5" y="1941.83" as="sourcePoint"/>
                        <mxPoint x="-1072.7301199999997" y="1923.4700000000003" as="targetPoint"/>
                    </mxGeometry>
                </mxCell>
                <mxCell id="qrv_AutaITu0o9wcxWjF-102" value="" style="endArrow=none;html=1;labelBackgroundColor=none;strokeWidth=5;fontFamily=Verdana;fontSize=12;startArrow=none;entryX=0.666;entryY=0.669;entryDx=0;entryDy=0;entryPerimeter=0;exitX=0.665;exitY=0.664;exitDx=0;exitDy=0;exitPerimeter=0;rounded=0;strokeColor=#E3E3E3;" parent="1" target="qrv_AutaITu0o9wcxWjF-101" edge="1">
                    <mxGeometry width="50" height="100" relative="1" as="geometry">
                        <mxPoint x="-988.9152999999997" y="1968.5899999999997" as="sourcePoint"/>
                        <mxPoint x="-988.4941199999998" y="1969.79" as="targetPoint"/>
                        <Array as="points">
                            <mxPoint x="-1022.5" y="1991.83"/>
                        </Array>
                    </mxGeometry>
                </mxCell>
                <mxCell id="qrv_AutaITu0o9wcxWjF-104" value="" style="verticalLabelPosition=bottom;html=1;verticalAlign=top;strokeWidth=1;dashed=0;shape=mxgraph.aws3d.arrowhead;aspect=fixed;shadow=0;comic=0;fillColor=none;fontFamily=Verdana;fontSize=12;fontColor=#000000;flipV=1;direction=west;rounded=0;strokeColor=#D4D4D4;" parent="1" vertex="1">
                    <mxGeometry x="-1251.8" y="2020" width="39" height="23" as="geometry"/>
                </mxCell>
                <mxCell id="qrv_AutaITu0o9wcxWjF-105" value="ELB" style="text;html=1;strokeColor=none;fillColor=none;align=center;verticalAlign=middle;whiteSpace=wrap;fontStyle=3;fontSize=20;fontColor=#CCCCCC;rotation=30;rounded=0;" parent="1" vertex="1">
                    <mxGeometry x="-1899.15" y="1690.43" width="187.5" height="30" as="geometry"/>
                </mxCell>
                <mxCell id="qrv_AutaITu0o9wcxWjF-116" value="ASG/EKS" style="text;html=1;strokeColor=none;fillColor=none;align=center;verticalAlign=middle;whiteSpace=wrap;fontStyle=3;fontSize=30;fontColor=#FFD966;rotation=30;rounded=0;" parent="1" vertex="1">
                    <mxGeometry x="-1585" y="1564" width="60" height="30" as="geometry"/>
                </mxCell>
                <mxCell id="B3BQzE-XJVKBGRHIk9GQ-1" value="" style="verticalLabelPosition=bottom;html=1;verticalAlign=top;strokeWidth=1;align=center;outlineConnect=0;dashed=0;outlineConnect=0;shape=mxgraph.aws3d.end_user;strokeColor=none;fillColor=#777777;aspect=fixed;sketch=0;" parent="1" vertex="1">
                    <mxGeometry x="-3249" y="2297" width="49" height="100.46" as="geometry"/>
                </mxCell>
                <mxCell id="B3BQzE-XJVKBGRHIk9GQ-2" value="" style="verticalLabelPosition=bottom;html=1;verticalAlign=top;strokeWidth=1;align=center;outlineConnect=0;dashed=0;outlineConnect=0;shape=mxgraph.aws3d.arrowNE;fillColor=#FFFFFF;aspect=fixed;sketch=0;strokeColor=#FFFFFF;" parent="1" vertex="1">
                    <mxGeometry x="-3186" y="2304" width="93.5" height="53.43" as="geometry"/>
                </mxCell>
                <mxCell id="B3BQzE-XJVKBGRHIk9GQ-4" value="" style="verticalLabelPosition=bottom;html=1;verticalAlign=top;strokeWidth=1;dashed=0;shape=mxgraph.aws3d.dashedArrowlessEdge;fillColor=#000000;aspect=fixed;shadow=0;comic=0;fontFamily=Verdana;fontSize=12;fontColor=#000000;flipV=1;rounded=0;" parent="1" vertex="1">
                    <mxGeometry x="-2764" y="2129" width="318.35" height="181" as="geometry"/>
                </mxCell>
                <mxCell id="B3BQzE-XJVKBGRHIk9GQ-5" value="" style="verticalLabelPosition=bottom;html=1;verticalAlign=top;strokeWidth=1;dashed=0;shape=mxgraph.aws3d.dashedArrowlessEdge;aspect=fixed;shadow=0;comic=0;fontFamily=Verdana;fontSize=12;rounded=0;" parent="1" vertex="1">
                    <mxGeometry x="-2758" y="2314" width="1059.97" height="604" as="geometry"/>
                </mxCell>
                <mxCell id="B3BQzE-XJVKBGRHIk9GQ-6" value="" style="verticalLabelPosition=bottom;html=1;verticalAlign=top;strokeWidth=1;dashed=0;shape=mxgraph.aws3d.dashedArrowlessEdge;aspect=fixed;shadow=0;comic=0;fontFamily=Verdana;fontSize=12;rounded=0;" parent="1" vertex="1">
                    <mxGeometry x="-2439" y="2130" width="1047.68" height="597" as="geometry"/>
                </mxCell>
                <mxCell id="B3BQzE-XJVKBGRHIk9GQ-7" value="" style="verticalLabelPosition=bottom;html=1;verticalAlign=top;strokeWidth=1;dashed=0;shape=mxgraph.aws3d.dashedArrowlessEdge;aspect=fixed;shadow=0;comic=0;fontFamily=Verdana;fontSize=12;flipV=1;rounded=0;" parent="1" vertex="1">
                    <mxGeometry x="-1702" y="2735" width="313.87" height="179" as="geometry"/>
                </mxCell>
                <mxCell id="B3BQzE-XJVKBGRHIk9GQ-8" value="" style="verticalLabelPosition=bottom;html=1;verticalAlign=top;strokeWidth=1;align=center;outlineConnect=0;dashed=0;outlineConnect=0;shape=mxgraph.aws3d.dashedEdge;fillColor=#000000;aspect=fixed;sketch=0;" parent="1" vertex="1">
                    <mxGeometry x="-2938" y="2142" width="119.6" height="68.13" as="geometry"/>
                </mxCell>
                <mxCell id="B3BQzE-XJVKBGRHIk9GQ-9" value="" style="verticalLabelPosition=bottom;html=1;verticalAlign=top;strokeWidth=1;align=center;outlineConnect=0;dashed=0;outlineConnect=0;shape=mxgraph.aws3d.dataCenter;strokeColor=#5E5E5E;aspect=fixed;sketch=0;" parent="1" vertex="1">
                    <mxGeometry x="-2815" y="2001" width="128.2" height="148" as="geometry"/>
                </mxCell>
                <mxCell id="B3BQzE-XJVKBGRHIk9GQ-10" value="" style="verticalLabelPosition=bottom;html=1;verticalAlign=top;strokeWidth=1;align=center;outlineConnect=0;dashed=0;outlineConnect=0;shape=mxgraph.aws3d.spot;aspect=fixed;sketch=0;" parent="1" vertex="1">
                    <mxGeometry x="-2631" y="2207" width="266.94" height="155" as="geometry"/>
                </mxCell>
                <mxCell id="B3BQzE-XJVKBGRHIk9GQ-11" value="" style="verticalLabelPosition=bottom;html=1;verticalAlign=top;strokeWidth=1;align=center;outlineConnect=0;dashed=0;outlineConnect=0;shape=mxgraph.aws3d.decider;fillColor=#ECECEC;strokeColor=#5E5E5E;aspect=fixed;sketch=0;" parent="1" vertex="1">
                    <mxGeometry x="-2645" y="2193" width="74" height="50" as="geometry"/>
                </mxCell>
                <mxCell id="B3BQzE-XJVKBGRHIk9GQ-12" value="" style="verticalLabelPosition=bottom;html=1;verticalAlign=top;strokeWidth=1;align=center;outlineConnect=0;dashed=0;outlineConnect=0;shape=mxgraph.aws3d.dashedEdge;fillColor=#000000;aspect=fixed;sketch=0;direction=west;flipV=1;" parent="1" vertex="1">
                    <mxGeometry x="-3040" y="2318" width="238.76" height="136" as="geometry"/>
                </mxCell>
                <mxCell id="B3BQzE-XJVKBGRHIk9GQ-13" value="" style="verticalLabelPosition=bottom;html=1;verticalAlign=top;strokeWidth=1;align=center;outlineConnect=0;dashed=0;outlineConnect=0;shape=mxgraph.aws3d.dashedArrowlessEdge;fillColor=#000000;aspect=fixed;sketch=0;direction=west;flipV=1;" parent="1" vertex="1">
                    <mxGeometry x="-2798" y="2332" width="216.31" height="123.22" as="geometry"/>
                </mxCell>
                <mxCell id="B3BQzE-XJVKBGRHIk9GQ-14" value="Git" style="text;html=1;strokeColor=none;fillColor=none;align=center;verticalAlign=middle;whiteSpace=wrap;fontStyle=3;fontSize=20;fontColor=#7EA6E0;rotation=-30;rounded=0;flipV=1;flipH=1;direction=west;" parent="1" vertex="1">
                    <mxGeometry x="-3014" y="2262" width="60" height="30" as="geometry"/>
                </mxCell>
                <mxCell id="B3BQzE-XJVKBGRHIk9GQ-15" value="" style="verticalLabelPosition=bottom;html=1;verticalAlign=top;strokeWidth=1;align=center;outlineConnect=0;dashed=0;outlineConnect=0;shape=mxgraph.aws3d.file;aspect=fixed;strokeColor=#2d6195;fillColor=#ffffff;shadow=0;labelBackgroundColor=none;sketch=0;fontSize=40;fontColor=#FFFFFF;" parent="1" vertex="1">
                    <mxGeometry x="-3095" y="2227" width="35.6" height="81.6" as="geometry"/>
                </mxCell>
                <mxCell id="B3BQzE-XJVKBGRHIk9GQ-16" value="Hook" style="text;html=1;strokeColor=none;fillColor=none;align=center;verticalAlign=middle;whiteSpace=wrap;fontStyle=3;fontSize=10;fontColor=#7EA6E0;rotation=-30;rounded=0;flipV=1;flipH=1;direction=west;" parent="1" vertex="1">
                    <mxGeometry x="-2907" y="2180" width="60" height="30" as="geometry"/>
                </mxCell>
                <mxCell id="B3BQzE-XJVKBGRHIk9GQ-17" value="Jenkins" style="text;html=1;strokeColor=none;fillColor=none;align=center;verticalAlign=middle;whiteSpace=wrap;fontStyle=3;fontSize=20;fontColor=#7EA6E0;rotation=-30;rounded=0;flipV=1;flipH=1;direction=west;" parent="1" vertex="1">
                    <mxGeometry x="-2823" y="1994" width="60" height="30" as="geometry"/>
                </mxCell>
                <mxCell id="B3BQzE-XJVKBGRHIk9GQ-18" value="Commit" style="text;html=1;strokeColor=none;fillColor=none;align=center;verticalAlign=middle;whiteSpace=wrap;fontStyle=3;fontSize=10;fontColor=#7EA6E0;rotation=-30;rounded=0;flipV=1;flipH=1;direction=west;" parent="1" vertex="1">
                    <mxGeometry x="-3152" y="2327" width="60" height="30" as="geometry"/>
                </mxCell>
                <mxCell id="B3BQzE-XJVKBGRHIk9GQ-19" value="Clone" style="text;html=1;strokeColor=none;fillColor=none;align=center;verticalAlign=middle;whiteSpace=wrap;fontStyle=3;fontSize=10;fontColor=#7EA6E0;rotation=-30;rounded=0;flipV=1;flipH=1;direction=west;" parent="1" vertex="1">
                    <mxGeometry x="-2734" y="2409" width="60" height="30" as="geometry"/>
                </mxCell>
                <mxCell id="B3BQzE-XJVKBGRHIk9GQ-20" value="" style="verticalLabelPosition=bottom;html=1;verticalAlign=top;strokeWidth=1;align=center;outlineConnect=0;dashed=0;outlineConnect=0;shape=mxgraph.aws3d.file;aspect=fixed;strokeColor=#292929;sketch=0;fontSize=10;" parent="1" vertex="1">
                    <mxGeometry x="-2519" y="2224" width="30.8" height="70.6" as="geometry"/>
                </mxCell>
                <mxCell id="B3BQzE-XJVKBGRHIk9GQ-21" value="" style="verticalLabelPosition=bottom;html=1;verticalAlign=top;strokeWidth=1;align=center;outlineConnect=0;dashed=0;outlineConnect=0;shape=mxgraph.aws3d.spot;aspect=fixed;sketch=0;" parent="1" vertex="1">
                    <mxGeometry x="-2424" y="2330" width="266.94" height="155" as="geometry"/>
                </mxCell>
                <mxCell id="B3BQzE-XJVKBGRHIk9GQ-22" value="" style="verticalLabelPosition=bottom;html=1;verticalAlign=top;strokeWidth=1;align=center;outlineConnect=0;dashed=0;outlineConnect=0;shape=mxgraph.aws3d.flatEdge;fillColor=#000000;aspect=fixed;sketch=0;fontSize=10;flipV=1;" parent="1" vertex="1">
                    <mxGeometry x="-2424" y="2324" width="63.2" height="36" as="geometry"/>
                </mxCell>
                <mxCell id="B3BQzE-XJVKBGRHIk9GQ-23" value="Job" style="text;html=1;strokeColor=none;fillColor=none;align=center;verticalAlign=middle;whiteSpace=wrap;fontStyle=3;fontSize=20;fontColor=#7EA6E0;rotation=-30;rounded=0;flipV=1;flipH=1;direction=west;" parent="1" vertex="1">
                    <mxGeometry x="-2665" y="2173" width="60" height="30" as="geometry"/>
                </mxCell>
                <mxCell id="B3BQzE-XJVKBGRHIk9GQ-24" value="" style="verticalLabelPosition=bottom;html=1;verticalAlign=top;strokeWidth=1;align=center;outlineConnect=0;dashed=0;outlineConnect=0;shape=mxgraph.aws3d.dashedEdge;fillColor=#000000;aspect=fixed;sketch=0;fontSize=10;flipV=1;" parent="1" vertex="1">
                    <mxGeometry x="-2714" y="2146" width="48" height="27.34" as="geometry"/>
                </mxCell>
                <mxCell id="B3BQzE-XJVKBGRHIk9GQ-25" value="" style="verticalLabelPosition=bottom;html=1;verticalAlign=top;strokeWidth=1;align=center;outlineConnect=0;dashed=0;outlineConnect=0;shape=mxgraph.aws3d.worker;fillColor=#ECECEC;strokeColor=#5E5E5E;aspect=fixed;sketch=0;" parent="1" vertex="1">
                    <mxGeometry x="-2330" y="2378" width="74" height="50" as="geometry"/>
                </mxCell>
                <mxCell id="B3BQzE-XJVKBGRHIk9GQ-26" value="&lt;div style=&quot;font-size: 15px&quot;&gt;&lt;font style=&quot;font-size: 15px&quot; color=&quot;#B3B3B3&quot;&gt;Checkout&lt;/font&gt;&lt;/div&gt;" style="text;html=1;strokeColor=none;fillColor=none;align=center;verticalAlign=middle;whiteSpace=wrap;fontStyle=3;fontSize=20;fontColor=#7EA6E0;rotation=30;rounded=0;flipV=0;flipH=1;direction=west;" parent="1" vertex="1">
                    <mxGeometry x="-2491" y="2204" width="60" height="30" as="geometry"/>
                </mxCell>
                <mxCell id="B3BQzE-XJVKBGRHIk9GQ-27" value="Build" style="text;html=1;strokeColor=none;fillColor=none;align=center;verticalAlign=middle;whiteSpace=wrap;fontStyle=3;fontSize=15;fontColor=#B3B3B3;rotation=30;rounded=0;flipV=0;flipH=1;direction=west;labelBackgroundColor=none;" parent="1" vertex="1">
                    <mxGeometry x="-2296" y="2322" width="60" height="30" as="geometry"/>
                </mxCell>
                <mxCell id="B3BQzE-XJVKBGRHIk9GQ-28" value="" style="verticalLabelPosition=bottom;html=1;verticalAlign=top;strokeWidth=1;align=center;outlineConnect=0;dashed=0;outlineConnect=0;shape=mxgraph.aws3d.spot;aspect=fixed;sketch=0;" parent="1" vertex="1">
                    <mxGeometry x="-2222" y="2454" width="266.94" height="155" as="geometry"/>
                </mxCell>
                <mxCell id="B3BQzE-XJVKBGRHIk9GQ-29" value="" style="verticalLabelPosition=bottom;html=1;verticalAlign=top;strokeWidth=1;align=center;outlineConnect=0;dashed=0;outlineConnect=0;shape=mxgraph.aws3d.flatEdge;fillColor=#000000;aspect=fixed;sketch=0;fontSize=10;flipV=1;" parent="1" vertex="1">
                    <mxGeometry x="-2222" y="2448" width="63.2" height="36" as="geometry"/>
                </mxCell>
                <mxCell id="B3BQzE-XJVKBGRHIk9GQ-30" value="Test" style="text;html=1;strokeColor=none;fillColor=none;align=center;verticalAlign=middle;whiteSpace=wrap;fontStyle=3;fontSize=15;fontColor=#B3B3B3;rotation=30;rounded=0;flipV=0;flipH=1;direction=west;labelBackgroundColor=none;" parent="1" vertex="1">
                    <mxGeometry x="-2098" y="2444" width="60" height="30" as="geometry"/>
                </mxCell>
                <mxCell id="B3BQzE-XJVKBGRHIk9GQ-31" value="" style="verticalLabelPosition=bottom;html=1;verticalAlign=top;strokeWidth=1;align=center;outlineConnect=0;dashed=0;outlineConnect=0;shape=mxgraph.aws3d.spot;aspect=fixed;sketch=0;" parent="1" vertex="1">
                    <mxGeometry x="-2020" y="2579" width="266.94" height="155" as="geometry"/>
                </mxCell>
                <mxCell id="B3BQzE-XJVKBGRHIk9GQ-32" value="" style="verticalLabelPosition=bottom;html=1;verticalAlign=top;strokeWidth=1;align=center;outlineConnect=0;dashed=0;outlineConnect=0;shape=mxgraph.aws3d.flatEdge;fillColor=#000000;aspect=fixed;sketch=0;fontSize=10;flipV=1;" parent="1" vertex="1">
                    <mxGeometry x="-2020" y="2573" width="63.2" height="36" as="geometry"/>
                </mxCell>
                <mxCell id="B3BQzE-XJVKBGRHIk9GQ-33" value="Containerize" style="text;html=1;strokeColor=none;fillColor=none;align=center;verticalAlign=middle;whiteSpace=wrap;fontStyle=3;fontSize=15;fontColor=#B3B3B3;rotation=30;rounded=0;flipV=0;flipH=1;direction=west;labelBackgroundColor=none;" parent="1" vertex="1">
                    <mxGeometry x="-1869" y="2583" width="60" height="30" as="geometry"/>
                </mxCell>
                <mxCell id="B3BQzE-XJVKBGRHIk9GQ-34" value="" style="verticalLabelPosition=bottom;html=1;verticalAlign=top;strokeWidth=1;align=center;outlineConnect=0;dashed=0;outlineConnect=0;shape=mxgraph.aws3d.spot;aspect=fixed;sketch=0;" parent="1" vertex="1">
                    <mxGeometry x="-1814" y="2703" width="266.94" height="155" as="geometry"/>
                </mxCell>
                <mxCell id="B3BQzE-XJVKBGRHIk9GQ-35" value="" style="verticalLabelPosition=bottom;html=1;verticalAlign=top;strokeWidth=1;align=center;outlineConnect=0;dashed=0;outlineConnect=0;shape=mxgraph.aws3d.flatEdge;fillColor=#000000;aspect=fixed;sketch=0;fontSize=10;flipV=1;" parent="1" vertex="1">
                    <mxGeometry x="-1814" y="2697" width="63.2" height="36" as="geometry"/>
                </mxCell>
                <mxCell id="B3BQzE-XJVKBGRHIk9GQ-36" value="Deploy" style="text;html=1;strokeColor=none;fillColor=none;align=center;verticalAlign=middle;whiteSpace=wrap;fontStyle=3;fontSize=15;fontColor=#B3B3B3;rotation=30;rounded=0;flipV=0;flipH=1;direction=west;labelBackgroundColor=none;" parent="1" vertex="1">
                    <mxGeometry x="-1681" y="2697" width="60" height="30" as="geometry"/>
                </mxCell>
                <mxCell id="B3BQzE-XJVKBGRHIk9GQ-37" value="" style="verticalLabelPosition=bottom;html=1;verticalAlign=top;strokeWidth=1;align=center;outlineConnect=0;dashed=0;outlineConnect=0;shape=mxgraph.aws3d.s3Bucket;fillColor=#4286c5;strokeColor=#57A2D8;aspect=fixed;labelBackgroundColor=none;sketch=0;fontSize=15;fontColor=#B3B3B3;" parent="1" vertex="1">
                    <mxGeometry x="-1648" y="2455" width="61.5" height="63.800000000000004" as="geometry"/>
                </mxCell>
                <mxCell id="B3BQzE-XJVKBGRHIk9GQ-38" value="" style="verticalLabelPosition=bottom;html=1;verticalAlign=top;strokeWidth=1;align=center;outlineConnect=0;dashed=0;outlineConnect=0;shape=mxgraph.aws3d.workflowService;fillColor=#ECECEC;strokeColor=#5E5E5E;aspect=fixed;labelBackgroundColor=none;sketch=0;fontSize=15;fontColor=#B3B3B3;" parent="1" vertex="1">
                    <mxGeometry x="-2137" y="2487" width="96.2" height="78.35" as="geometry"/>
                </mxCell>
                <mxCell id="B3BQzE-XJVKBGRHIk9GQ-39" value="" style="verticalLabelPosition=bottom;html=1;verticalAlign=top;strokeWidth=1;align=center;outlineConnect=0;dashed=0;outlineConnect=0;shape=mxgraph.aws3d.ami2;aspect=fixed;fillColor=#FF9900;strokeColor=#ffffff;labelBackgroundColor=none;sketch=0;fontSize=15;fontColor=#B3B3B3;" parent="1" vertex="1">
                    <mxGeometry x="-2015" y="2432" width="74" height="50" as="geometry"/>
                </mxCell>
                <mxCell id="B3BQzE-XJVKBGRHIk9GQ-41" value="" style="verticalLabelPosition=bottom;html=1;verticalAlign=top;strokeWidth=1;align=center;outlineConnect=0;dashed=0;outlineConnect=0;shape=mxgraph.aws3d.application_server;fillColor=#ECECEC;strokeColor=#5E5E5E;aspect=fixed;sketch=0;" parent="1" vertex="1">
                    <mxGeometry x="-1739" y="2709" width="123" height="124" as="geometry"/>
                </mxCell>
                <mxCell id="B3BQzE-XJVKBGRHIk9GQ-42" value="" style="verticalLabelPosition=bottom;html=1;verticalAlign=top;strokeWidth=1;align=center;outlineConnect=0;dashed=0;outlineConnect=0;shape=mxgraph.aws3d.dashedEdge;fillColor=#000000;aspect=fixed;sketch=0;" parent="1" vertex="1">
                    <mxGeometry x="-1778" y="2534" width="119.6" height="68.13" as="geometry"/>
                </mxCell>
                <mxCell id="B3BQzE-XJVKBGRHIk9GQ-43" value="" style="verticalLabelPosition=bottom;html=1;verticalAlign=top;strokeWidth=1;align=center;outlineConnect=0;dashed=0;outlineConnect=0;shape=mxgraph.aws3d.dashedEdge;fillColor=#000000;aspect=fixed;sketch=0;fontSize=10;flipV=1;flipH=1;direction=west;" parent="1" vertex="1">
                    <mxGeometry x="-2048" y="2478" width="48" height="27.34" as="geometry"/>
                </mxCell>
                <mxCell id="B3BQzE-XJVKBGRHIk9GQ-44" value="&lt;div&gt;Registry&lt;/div&gt;" style="text;html=1;strokeColor=none;fillColor=none;align=center;verticalAlign=middle;whiteSpace=wrap;fontStyle=3;fontSize=20;fontColor=#7EA6E0;rotation=-30;rounded=0;flipV=1;flipH=1;direction=west;" parent="1" vertex="1">
                    <mxGeometry x="-1624" y="2514" width="60" height="30" as="geometry"/>
                </mxCell>
                <mxCell id="2" value="ASG/EKS" style="text;html=1;strokeColor=none;fillColor=none;align=center;verticalAlign=middle;whiteSpace=wrap;fontStyle=3;fontSize=30;fontColor=#FFD966;rotation=30;rounded=0;" vertex="1" parent="1">
                    <mxGeometry x="-1040" y="1883" width="60" height="30" as="geometry"/>
                </mxCell>
                <mxCell id="3" value="" style="verticalLabelPosition=bottom;html=1;verticalAlign=top;strokeWidth=1;align=center;outlineConnect=0;dashed=0;outlineConnect=0;shape=mxgraph.aws3d.sqs;fillColor=#ECECEC;strokeColor=#5E5E5E;aspect=fixed;" vertex="1" parent="1">
                    <mxGeometry x="-1590" y="1259" width="96.86" height="112" as="geometry"/>
                </mxCell>
                <mxCell id="18" value="" style="verticalLabelPosition=bottom;html=1;verticalAlign=top;strokeWidth=1;dashed=0;shape=mxgraph.aws3d.dashedArrowlessEdge;fillColor=#000000;aspect=fixed;shadow=0;comic=0;fontFamily=Verdana;fontSize=12;fontColor=#000000;flipV=1;rounded=0;" vertex="1" parent="1">
                    <mxGeometry x="-2163" y="820" width="318.35" height="181" as="geometry"/>
                </mxCell>
                <mxCell id="19" value="" style="verticalLabelPosition=bottom;html=1;verticalAlign=top;strokeWidth=1;dashed=0;shape=mxgraph.aws3d.dashedArrowlessEdge;aspect=fixed;shadow=0;comic=0;fontFamily=Verdana;fontSize=12;rounded=0;" vertex="1" parent="1">
                    <mxGeometry x="-2164" y="1006.01" width="265.68" height="151.39" as="geometry"/>
                </mxCell>
                <mxCell id="20" value="" style="verticalLabelPosition=bottom;html=1;verticalAlign=top;strokeWidth=1;dashed=0;shape=mxgraph.aws3d.dashedArrowlessEdge;aspect=fixed;shadow=0;comic=0;fontFamily=Verdana;fontSize=12;rounded=0;" vertex="1" parent="1">
                    <mxGeometry x="-1843" y="823.88" width="268.73" height="153.12" as="geometry"/>
                </mxCell>
                <mxCell id="21" value="" style="verticalLabelPosition=bottom;html=1;verticalAlign=top;strokeWidth=1;dashed=0;shape=mxgraph.aws3d.dashedArrowlessEdge;aspect=fixed;shadow=0;comic=0;fontFamily=Verdana;fontSize=12;flipV=1;rounded=0;" vertex="1" parent="1">
                    <mxGeometry x="-1893" y="980" width="313.47" height="178.77" as="geometry"/>
                </mxCell>
                <mxCell id="24" value="Mainframe Env" style="text;html=1;strokeColor=none;fillColor=none;align=center;verticalAlign=middle;whiteSpace=wrap;fontStyle=3;fontSize=40;fontColor=#7EA6E0;rotation=-30;rounded=0;flipH=0;flipV=1;" vertex="1" parent="1">
                    <mxGeometry x="-2221" y="890" width="338" height="30" as="geometry"/>
                </mxCell>
                <mxCell id="28" value="" style="verticalLabelPosition=bottom;html=1;verticalAlign=top;strokeWidth=1;align=center;outlineConnect=0;dashed=0;outlineConnect=0;shape=mxgraph.aws3d.application;fillColor=#4286c5;strokeColor=#57A2D8;aspect=fixed;" vertex="1" parent="1">
                    <mxGeometry x="-1914" y="2611" width="62" height="68.8" as="geometry"/>
                </mxCell>
                <mxCell id="29" value="" style="verticalLabelPosition=bottom;html=1;verticalAlign=top;strokeWidth=1;align=center;outlineConnect=0;dashed=0;outlineConnect=0;shape=mxgraph.aws3d.workflowService;fillColor=#ECECEC;strokeColor=#5E5E5E;aspect=fixed;" vertex="1" parent="1">
                    <mxGeometry x="-924" y="1001" width="182.20000000000002" height="148.4" as="geometry"/>
                </mxCell>
                <mxCell id="33" value="" style="edgeStyle=isometricEdgeStyle;endArrow=none;html=1;labelBackgroundColor=none;strokeWidth=5;fontFamily=Verdana;fontSize=12;startArrow=none;rounded=0;strokeColor=#000000;" edge="1" parent="1" source="68" target="70">
                    <mxGeometry width="50" height="100" relative="1" as="geometry">
                        <mxPoint x="-1080" y="1095" as="sourcePoint"/>
                        <mxPoint x="-1011" y="1070" as="targetPoint"/>
                        <Array as="points">
                            <mxPoint x="-999" y="1122"/>
                        </Array>
                    </mxGeometry>
                </mxCell>
                <mxCell id="14" value="" style="image;aspect=fixed;html=1;points=[];align=center;fontSize=12;image=img/lib/azure2/blockchain/ABS_Member.svg;" vertex="1" parent="1">
                    <mxGeometry x="-1903" y="799" width="112" height="130" as="geometry"/>
                </mxCell>
                <mxCell id="37" value="" style="verticalLabelPosition=bottom;html=1;verticalAlign=top;strokeWidth=1;dashed=0;shape=mxgraph.aws3d.dashedEdgeDouble;fillColor=#000000;aspect=fixed;shadow=0;comic=0;fontFamily=Verdana;fontSize=12;flipV=0;rounded=0;" vertex="1" parent="1">
                    <mxGeometry x="-1589" y="994.47" width="243.95" height="140.2" as="geometry"/>
                </mxCell>
                <mxCell id="26" value="" style="verticalLabelPosition=bottom;html=1;verticalAlign=top;strokeWidth=1;align=center;outlineConnect=0;dashed=0;outlineConnect=0;shape=mxgraph.aws3d.customerGateway;fillColor=#ECECEC;strokeColor=#5E5E5E;aspect=fixed;" vertex="1" parent="1">
                    <mxGeometry x="-1502" y="1016" width="116.7" height="102.8" as="geometry"/>
                </mxCell>
                <mxCell id="36" value="z/OS" style="text;html=1;strokeColor=none;fillColor=none;align=center;verticalAlign=middle;whiteSpace=wrap;fontStyle=3;fontSize=20;fontColor=#CCCCCC;rotation=30;rounded=0;" vertex="1" parent="1">
                    <mxGeometry x="-2043" y="1088" width="187.5" height="30" as="geometry"/>
                </mxCell>
                <mxCell id="38" value="FS" style="text;html=1;strokeColor=none;fillColor=none;align=center;verticalAlign=middle;whiteSpace=wrap;fontStyle=3;fontSize=20;fontColor=#CCCCCC;rotation=30;rounded=0;" vertex="1" parent="1">
                    <mxGeometry x="-1807" y="993" width="187.5" height="30" as="geometry"/>
                </mxCell>
                <mxCell id="13" value="" style="image;aspect=fixed;perimeter=ellipsePerimeter;html=1;align=center;shadow=0;dashed=0;spacingTop=3;image=img/lib/active_directory/mainframe.svg;rotation=1.9;" vertex="1" parent="1">
                    <mxGeometry x="-1993" y="976" width="161" height="152.95" as="geometry"/>
                </mxCell>
                <mxCell id="40" value="SQS" style="text;html=1;strokeColor=none;fillColor=none;align=center;verticalAlign=middle;whiteSpace=wrap;fontStyle=3;fontSize=20;fontColor=#CCCCCC;rotation=30;rounded=0;" vertex="1" parent="1">
                    <mxGeometry x="-1675" y="1355" width="187.5" height="30" as="geometry"/>
                </mxCell>
                <mxCell id="41" value="Spark" style="text;html=1;strokeColor=none;fillColor=none;align=center;verticalAlign=middle;whiteSpace=wrap;fontStyle=3;fontSize=20;fontColor=#CCCCCC;rotation=30;rounded=0;" vertex="1" parent="1">
                    <mxGeometry x="-1979" y="908" width="187.5" height="30" as="geometry"/>
                </mxCell>
                <UserObject label="" tooltip="File Server / File System access (VSAM files)" id="48">
                    <mxCell style="group" vertex="1" connectable="0" parent="1">
                        <mxGeometry x="-1738" y="841" width="133" height="175.60000000000002" as="geometry"/>
                    </mxCell>
                </UserObject>
                <mxCell id="78" value="" style="verticalLabelPosition=bottom;html=1;verticalAlign=top;strokeWidth=1;dashed=0;shape=mxgraph.aws3d.arrowhead;aspect=fixed;shadow=0;comic=0;fillColor=none;fontFamily=Verdana;fontSize=12;fontColor=#000000;flipV=0;direction=west;rounded=0;strokeColor=light-dark(#e3e3e3, #5a5555);flipH=1;" vertex="1" parent="48">
                    <mxGeometry x="88" y="32" width="39" height="23" as="geometry"/>
                </mxCell>
                <mxCell id="42" value="" style="verticalLabelPosition=bottom;html=1;verticalAlign=top;strokeWidth=1;align=center;outlineConnect=0;dashed=0;outlineConnect=0;shape=mxgraph.aws3d.cloudfront;fillColor=#ECECEC;strokeColor=#5E5E5E;aspect=fixed;" vertex="1" parent="48">
                    <mxGeometry width="103.8" height="169.79999999999998" as="geometry"/>
                </mxCell>
                <mxCell id="43" value="" style="verticalLabelPosition=bottom;html=1;verticalAlign=top;strokeWidth=1;align=center;outlineConnect=0;dashed=0;outlineConnect=0;shape=mxgraph.aws3d.file;aspect=fixed;strokeColor=#292929;" vertex="1" parent="48">
                    <mxGeometry x="81" y="105" width="30.8" height="70.6" as="geometry"/>
                </mxCell>
                <mxCell id="44" value="" style="ellipse;whiteSpace=wrap;html=1;strokeColor=none;fillColor=light-dark(#d4d4d4, #1a1a1a);fontColor=#333333;" vertex="1" parent="48">
                    <mxGeometry x="10" y="48" width="52" height="83" as="geometry"/>
                </mxCell>
                <mxCell id="47" value="" style="shape=parallelogram;perimeter=parallelogramPerimeter;whiteSpace=wrap;html=1;fixedSize=1;flipH=0;flipV=0;rotation=90;strokeColor=none;fillColor=#040404;" vertex="1" parent="48">
                    <mxGeometry x="15.75" y="23.25" width="25.5" height="35" as="geometry"/>
                </mxCell>
                <mxCell id="qrv_AutaITu0o9wcxWjF-92" value="" style="verticalLabelPosition=bottom;html=1;verticalAlign=top;strokeWidth=1;dashed=0;shape=mxgraph.aws3d.secureConnection;fillColor=#000000;strokeColor=#ffffff;aspect=fixed;shadow=0;comic=0;fontSize=12;rounded=0;" parent="1" vertex="1">
                    <mxGeometry x="-1720" y="1584.35" width="56.99999999999999" height="34" as="geometry"/>
                </mxCell>
                <mxCell id="60" value="TERRAFORM" style="text;html=1;strokeColor=none;fillColor=none;align=center;verticalAlign=middle;whiteSpace=wrap;fontStyle=3;fontSize=20;fontColor=#CCCCCC;rotation=30;rounded=0;" vertex="1" parent="1">
                    <mxGeometry x="-1719" y="1900" width="187.5" height="30" as="geometry"/>
                </mxCell>
                <mxCell id="64" value="" style="edgeStyle=isometricEdgeStyle;endArrow=none;html=1;labelBackgroundColor=none;strokeWidth=5;fontFamily=Verdana;fontSize=12;startArrow=none;rounded=0;strokeColor=#E3E3E3;dashed=1;exitX=0.35;exitY=0.879;exitDx=0;exitDy=0;exitPerimeter=0;" edge="1" parent="1" source="54">
                    <mxGeometry width="50" height="100" relative="1" as="geometry">
                        <mxPoint x="-1745" y="1802" as="sourcePoint"/>
                        <mxPoint x="-1400" y="1942" as="targetPoint"/>
                        <Array as="points">
                            <mxPoint x="-1585.31" y="1911.43"/>
                        </Array>
                    </mxGeometry>
                </mxCell>
                <mxCell id="66" value="DMS" style="text;html=1;strokeColor=none;fillColor=none;align=center;verticalAlign=middle;whiteSpace=wrap;fontStyle=3;fontSize=20;fontColor=#CCCCCC;rotation=30;rounded=0;" vertex="1" parent="1">
                    <mxGeometry x="-976" y="1133" width="187.5" height="30" as="geometry"/>
                </mxCell>
                <mxCell id="67" value="" style="edgeStyle=isometricEdgeStyle;endArrow=none;html=1;labelBackgroundColor=none;strokeWidth=5;fontFamily=Verdana;fontSize=12;startArrow=none;rounded=0;strokeColor=#000000;exitX=0.662;exitY=0.783;exitDx=0;exitDy=0;exitPerimeter=0;" edge="1" parent="1" source="76">
                    <mxGeometry width="50" height="100" relative="1" as="geometry">
                        <mxPoint x="-1580" y="920.36" as="sourcePoint"/>
                        <mxPoint x="-1145" y="963" as="targetPoint"/>
                        <Array as="points">
                            <mxPoint x="-1399" y="964"/>
                            <mxPoint x="-1268" y="1002.43"/>
                            <mxPoint x="-1134" y="955"/>
                            <mxPoint x="-1095" y="940"/>
                        </Array>
                    </mxGeometry>
                </mxCell>
                <mxCell id="70" value="" style="verticalLabelPosition=bottom;html=1;verticalAlign=top;strokeWidth=1;dashed=0;shape=mxgraph.aws3d.arrowhead;aspect=fixed;shadow=0;comic=0;fillColor=none;fontFamily=Verdana;fontSize=12;fontColor=#000000;flipV=1;direction=west;rounded=0;strokeColor=#D4D4D4;" vertex="1" parent="1">
                    <mxGeometry x="-946" y="1116" width="39" height="23" as="geometry"/>
                </mxCell>
                <mxCell id="74" value="" style="edgeStyle=isometricEdgeStyle;endArrow=none;html=1;labelBackgroundColor=none;strokeWidth=5;fontFamily=Verdana;fontSize=12;startArrow=none;rounded=0;strokeColor=#000000;entryX=0.554;entryY=0.391;entryDx=0;entryDy=0;entryPerimeter=0;" edge="1" parent="1" target="75">
                    <mxGeometry width="50" height="100" relative="1" as="geometry">
                        <mxPoint x="-1146" y="963" as="sourcePoint"/>
                        <mxPoint x="-928" y="1028" as="targetPoint"/>
                        <Array as="points">
                            <mxPoint x="-1084" y="934"/>
                        </Array>
                    </mxGeometry>
                </mxCell>
                <mxCell id="75" value="" style="verticalLabelPosition=bottom;html=1;verticalAlign=top;strokeWidth=1;dashed=0;shape=mxgraph.aws3d.arrowhead;aspect=fixed;shadow=0;comic=0;fillColor=none;fontFamily=Verdana;fontSize=12;fontColor=#000000;flipV=0;direction=west;rounded=0;strokeColor=#D4D4D4;flipH=0;" vertex="1" parent="1">
                    <mxGeometry x="-961" y="1004" width="39" height="23" as="geometry"/>
                </mxCell>
                <mxCell id="76" value="" style="verticalLabelPosition=bottom;html=1;verticalAlign=top;strokeWidth=1;dashed=0;shape=mxgraph.aws3d.arrowhead;aspect=fixed;shadow=0;comic=0;fillColor=none;fontFamily=Verdana;fontSize=12;fontColor=#000000;flipV=0;direction=west;rounded=0;strokeColor=#D4D4D4;flipH=1;" vertex="1" parent="1">
                    <mxGeometry x="-1603" y="909" width="39" height="23" as="geometry"/>
                </mxCell>
                <mxCell id="77" value="" style="verticalLabelPosition=bottom;html=1;verticalAlign=top;strokeWidth=1;dashed=0;shape=mxgraph.aws3d.arrowhead;aspect=fixed;shadow=0;comic=0;fillColor=none;fontFamily=Verdana;fontSize=12;fontColor=#000000;flipV=1;direction=west;rounded=0;strokeColor=#D4D4D4;" vertex="1" parent="1">
                    <mxGeometry x="-1572" y="841" width="39" height="23" as="geometry"/>
                </mxCell>
                <mxCell id="79" value="" style="edgeStyle=isometricEdgeStyle;endArrow=none;html=1;labelBackgroundColor=none;strokeWidth=5;fontFamily=Verdana;fontSize=12;startArrow=none;rounded=0;strokeColor=#000000;exitX=0.725;exitY=0.748;exitDx=0;exitDy=0;exitPerimeter=0;" edge="1" parent="1" source="78">
                    <mxGeometry width="50" height="100" relative="1" as="geometry">
                        <mxPoint x="-1572" y="945.38" as="sourcePoint"/>
                        <mxPoint x="-1559" y="858" as="targetPoint"/>
                        <Array as="points"/>
                    </mxGeometry>
                </mxCell>
                <mxCell id="81" value="" style="verticalLabelPosition=bottom;html=1;verticalAlign=top;strokeWidth=1;align=center;outlineConnect=0;dashed=0;outlineConnect=0;shape=mxgraph.aws3d.lambda;fillColor=#ECECEC;strokeColor=#5E5E5E;aspect=fixed;fontSize=12;fontColor=#0066CC;rounded=0;" vertex="1" parent="1">
                    <mxGeometry x="-959" y="922.9999999999998" width="52" height="61.89" as="geometry"/>
                </mxCell>
                <mxCell id="82" value="" style="edgeStyle=isometricEdgeStyle;endArrow=none;html=1;labelBackgroundColor=none;strokeWidth=5;fontFamily=Verdana;fontSize=12;startArrow=none;rounded=0;strokeColor=#000000;" edge="1" parent="1" source="83" target="84">
                    <mxGeometry width="50" height="100" relative="1" as="geometry">
                        <mxPoint x="-937" y="727.8" as="sourcePoint"/>
                        <mxPoint x="-762" y="873" as="targetPoint"/>
                        <Array as="points">
                            <mxPoint x="-756" y="771.44"/>
                            <mxPoint x="-625" y="809.8699999999999"/>
                            <mxPoint x="-491" y="762.44"/>
                            <mxPoint x="-452" y="747.44"/>
                        </Array>
                    </mxGeometry>
                </mxCell>
                <mxCell id="83" value="" style="verticalLabelPosition=bottom;html=1;verticalAlign=top;strokeWidth=1;dashed=0;shape=mxgraph.aws3d.arrowhead;aspect=fixed;shadow=0;comic=0;fillColor=none;fontFamily=Verdana;fontSize=12;fontColor=#000000;flipV=0;direction=west;rounded=0;strokeColor=#D4D4D4;flipH=1;" vertex="1" parent="1">
                    <mxGeometry x="-1105" y="808" width="39" height="23" as="geometry"/>
                </mxCell>
                <mxCell id="84" value="" style="verticalLabelPosition=bottom;html=1;verticalAlign=top;strokeWidth=1;dashed=0;shape=mxgraph.aws3d.arrowhead;aspect=fixed;shadow=0;comic=0;fillColor=none;fontFamily=Verdana;fontSize=12;fontColor=#000000;flipV=0;direction=west;rounded=0;strokeColor=#D4D4D4;flipH=1;" vertex="1" parent="1">
                    <mxGeometry x="-891" y="920" width="39" height="23" as="geometry"/>
                </mxCell>
                <mxCell id="85" value="S3 events" style="text;html=1;strokeColor=none;fillColor=none;align=center;verticalAlign=middle;whiteSpace=wrap;fontStyle=3;fontSize=20;fontColor=#CCCCCC;rotation=-30;rounded=0;flipH=1;" vertex="1" parent="1">
                    <mxGeometry x="-1023" y="698" width="187.5" height="30" as="geometry"/>
                </mxCell>
                <mxCell id="87" value="" style="verticalLabelPosition=bottom;html=1;verticalAlign=top;strokeWidth=1;dashed=0;shape=mxgraph.aws3d.dashedArrowlessEdge;aspect=fixed;shadow=0;comic=0;fontFamily=Verdana;fontSize=12;rounded=0;" vertex="1" parent="1">
                    <mxGeometry x="-1440" y="1705" width="559.82" height="319" as="geometry"/>
                </mxCell>
                <mxCell id="88" value="" style="verticalLabelPosition=bottom;html=1;verticalAlign=top;strokeWidth=1;dashed=0;shape=mxgraph.aws3d.dashedArrowlessEdge;aspect=fixed;shadow=0;comic=0;fontFamily=Verdana;fontSize=12;flipV=1;rounded=0;" vertex="1" parent="1">
                    <mxGeometry x="-561" y="1526" width="561.47" height="320.2" as="geometry"/>
                </mxCell>
                <mxCell id="89" value="" style="verticalLabelPosition=bottom;html=1;verticalAlign=top;strokeWidth=1;dashed=0;shape=mxgraph.aws3d.flatDoubleEdge;fillColor=#000000;aspect=fixed;shadow=0;comic=0;fontFamily=Verdana;fontSize=12;flipV=1;direction=west;flipH=0;rounded=0;" vertex="1" parent="1">
                    <mxGeometry x="-648" y="1503" width="420.08" height="239.57" as="geometry"/>
                </mxCell>
                <mxCell id="90" value="" style="verticalLabelPosition=bottom;html=1;verticalAlign=top;strokeWidth=1;align=center;outlineConnect=0;dashed=0;outlineConnect=0;shape=mxgraph.aws3d.ami2;aspect=fixed;fillColor=#FF9900;strokeColor=#ffffff;rounded=0;" vertex="1" parent="1">
                    <mxGeometry x="-543" y="1734" width="53.28" height="36" as="geometry"/>
                </mxCell>
                <mxCell id="91" value="" style="verticalLabelPosition=bottom;html=1;verticalAlign=top;strokeWidth=1;align=center;outlineConnect=0;dashed=0;outlineConnect=0;shape=mxgraph.aws3d.application_server;fillColor=#ECECEC;strokeColor=#5E5E5E;aspect=fixed;rounded=0;" vertex="1" parent="1">
                    <mxGeometry x="-411.02" y="1488" width="123" height="124" as="geometry"/>
                </mxCell>
                <mxCell id="92" value="" style="verticalLabelPosition=bottom;html=1;verticalAlign=top;strokeWidth=1;align=center;outlineConnect=0;dashed=0;outlineConnect=0;shape=mxgraph.aws3d.application_server;fillColor=#ECECEC;strokeColor=#5E5E5E;aspect=fixed;rounded=0;" vertex="1" parent="1">
                    <mxGeometry x="-495" y="1538" width="123" height="124" as="geometry"/>
                </mxCell>
                <mxCell id="93" value="" style="verticalLabelPosition=bottom;html=1;verticalAlign=top;strokeWidth=1;align=center;outlineConnect=0;dashed=0;outlineConnect=0;shape=mxgraph.aws3d.application_server;fillColor=#ECECEC;strokeColor=#5E5E5E;aspect=fixed;rounded=0;" vertex="1" parent="1">
                    <mxGeometry x="-586" y="1589" width="123" height="124" as="geometry"/>
                </mxCell>
                <mxCell id="94" value="" style="verticalLabelPosition=bottom;html=1;verticalAlign=top;strokeWidth=1;align=center;outlineConnect=0;dashed=0;outlineConnect=0;shape=mxgraph.aws3d.application;fillColor=#4286c5;strokeColor=#57A2D8;aspect=fixed;rounded=0;" vertex="1" parent="1">
                    <mxGeometry x="-277" y="1575" width="41.45" height="46" as="geometry"/>
                </mxCell>
                <mxCell id="101" value="ASG/EKS" style="text;html=1;strokeColor=none;fillColor=none;align=center;verticalAlign=middle;whiteSpace=wrap;fontStyle=3;fontSize=30;fontColor=#FFD966;rotation=-30;rounded=0;" vertex="1" parent="1">
                    <mxGeometry x="-456" y="1674" width="60" height="30" as="geometry"/>
                </mxCell>
                <mxCell id="102" value="" style="verticalLabelPosition=bottom;html=1;verticalAlign=top;strokeWidth=1;dashed=0;shape=mxgraph.aws3d.dashedArrowlessEdge;aspect=fixed;shadow=0;comic=0;fontFamily=Verdana;fontSize=12;flipV=1;rounded=0;" vertex="1" parent="1">
                    <mxGeometry x="-985" y="1123" width="832.23" height="474.61" as="geometry"/>
                </mxCell>
                <mxCell id="95" value="" style="verticalLabelPosition=bottom;html=1;verticalAlign=top;strokeWidth=1;dashed=0;shape=mxgraph.aws3d.elasticLoadBalancing;fillColor=#ECECEC;strokeColor=#5E5E5E;aspect=fixed;shadow=0;comic=0;fontSize=12;rounded=0;flipH=1;" vertex="1" parent="1">
                    <mxGeometry x="-259.27" y="1725.88" width="92" height="88.17" as="geometry"/>
                </mxCell>
                <mxCell id="96" value="" style="endArrow=none;html=1;labelBackgroundColor=none;strokeWidth=5;fontFamily=Verdana;fontSize=12;startArrow=none;exitX=1.027;exitY=0.332;exitDx=0;exitDy=0;exitPerimeter=0;rounded=0;strokeColor=#E3E3E3;entryX=0.677;entryY=0.775;entryDx=0;entryDy=0;entryPerimeter=0;" edge="1" parent="1" source="95">
                    <mxGeometry width="50" height="100" relative="1" as="geometry">
                        <mxPoint x="-352.96999999999997" y="2021.96" as="sourcePoint"/>
                        <mxPoint x="-242.45100000000002" y="1660.005" as="targetPoint"/>
                        <Array as="points">
                            <mxPoint x="-295.27" y="1734.88"/>
                            <mxPoint x="-205.26999999999998" y="1680.88"/>
                        </Array>
                    </mxGeometry>
                </mxCell>
                <mxCell id="97" value="" style="endArrow=none;html=1;labelBackgroundColor=none;strokeWidth=5;fontFamily=Verdana;fontSize=12;startArrow=none;entryX=0.466;entryY=0.476;entryDx=0;entryDy=0;entryPerimeter=0;rounded=0;strokeColor=#E3E3E3;exitX=0.576;exitY=0.918;exitDx=0;exitDy=0;exitPerimeter=0;" edge="1" parent="1">
                    <mxGeometry width="50" height="100" relative="1" as="geometry">
                        <mxPoint x="-317.19799999999987" y="1727.73" as="sourcePoint"/>
                        <mxPoint x="-338.27" y="1713.88" as="targetPoint"/>
                    </mxGeometry>
                </mxCell>
                <mxCell id="99" value="" style="endArrow=none;html=1;labelBackgroundColor=none;strokeWidth=5;fontFamily=Verdana;fontSize=12;startArrow=none;entryX=0.666;entryY=0.669;entryDx=0;entryDy=0;entryPerimeter=0;rounded=0;strokeColor=#E3E3E3;exitX=0.495;exitY=0.966;exitDx=0;exitDy=0;exitPerimeter=0;" edge="1" parent="1" target="98">
                    <mxGeometry width="50" height="100" relative="1" as="geometry">
                        <mxPoint x="-433.00499999999965" y="1773.65" as="sourcePoint"/>
                        <mxPoint x="-128.96411999999984" y="1929.92" as="targetPoint"/>
                        <Array as="points">
                            <mxPoint x="-399" y="1796"/>
                        </Array>
                    </mxGeometry>
                </mxCell>
                <mxCell id="100" value="" style="verticalLabelPosition=bottom;html=1;verticalAlign=top;strokeWidth=1;dashed=0;shape=mxgraph.aws3d.arrowhead;aspect=fixed;shadow=0;comic=0;fillColor=none;fontFamily=Verdana;fontSize=12;fontColor=#000000;flipV=1;direction=west;rounded=0;strokeColor=#D4D4D4;" vertex="1" parent="1">
                    <mxGeometry x="-286" y="1815" width="39" height="23" as="geometry"/>
                </mxCell>
                <mxCell id="qrv_AutaITu0o9wcxWjF-101" value="" style="verticalLabelPosition=bottom;html=1;verticalAlign=top;strokeWidth=1;dashed=0;shape=mxgraph.aws3d.secureConnection;fillColor=#000000;strokeColor=#ffffff;aspect=fixed;shadow=0;comic=0;fontSize=12;rounded=0;" parent="1" vertex="1">
                    <mxGeometry x="-1132.5" y="1926.1799999999998" width="56.99999999999999" height="34" as="geometry"/>
                </mxCell>
                <mxCell id="98" value="" style="verticalLabelPosition=bottom;html=1;verticalAlign=top;strokeWidth=1;dashed=0;shape=mxgraph.aws3d.secureConnection;fillColor=#000000;strokeColor=#ffffff;aspect=fixed;shadow=0;comic=0;fontSize=12;rounded=0;flipH=1;" vertex="1" parent="1">
                    <mxGeometry x="-326.27" y="1717.8799999999999" width="56.99999999999999" height="34" as="geometry"/>
                </mxCell>
                <mxCell id="108" value="" style="verticalLabelPosition=bottom;html=1;verticalAlign=top;strokeWidth=1;dashed=0;shape=mxgraph.aws3d.dashedArrowlessEdge;aspect=fixed;shadow=0;comic=0;fontFamily=Verdana;fontSize=12;flipV=1;rounded=0;" vertex="1" parent="1">
                    <mxGeometry x="4" y="1267" width="453.47" height="258.61" as="geometry"/>
                </mxCell>
                <mxCell id="109" value="" style="verticalLabelPosition=bottom;html=1;verticalAlign=top;strokeWidth=1;dashed=0;shape=mxgraph.aws3d.flatDoubleEdge;fillColor=#000000;aspect=fixed;shadow=0;comic=0;fontFamily=Verdana;fontSize=12;flipV=1;direction=west;flipH=0;rounded=0;" vertex="1" parent="1">
                    <mxGeometry x="-191" y="1244" width="420.08" height="239.57" as="geometry"/>
                </mxCell>
                <mxCell id="110" value="" style="verticalLabelPosition=bottom;html=1;verticalAlign=top;strokeWidth=1;align=center;outlineConnect=0;dashed=0;outlineConnect=0;shape=mxgraph.aws3d.ami2;aspect=fixed;fillColor=#FF9900;strokeColor=#ffffff;rounded=0;" vertex="1" parent="1">
                    <mxGeometry x="-186" y="1545" width="53.28" height="36" as="geometry"/>
                </mxCell>
                <mxCell id="111" value="" style="verticalLabelPosition=bottom;html=1;verticalAlign=top;strokeWidth=1;align=center;outlineConnect=0;dashed=0;outlineConnect=0;shape=mxgraph.aws3d.application_server;fillColor=#ECECEC;strokeColor=#5E5E5E;aspect=fixed;rounded=0;" vertex="1" parent="1">
                    <mxGeometry x="45.98000000000002" y="1229" width="123" height="124" as="geometry"/>
                </mxCell>
                <mxCell id="112" value="" style="verticalLabelPosition=bottom;html=1;verticalAlign=top;strokeWidth=1;align=center;outlineConnect=0;dashed=0;outlineConnect=0;shape=mxgraph.aws3d.application_server;fillColor=#ECECEC;strokeColor=#5E5E5E;aspect=fixed;rounded=0;" vertex="1" parent="1">
                    <mxGeometry x="-38" y="1279" width="123" height="124" as="geometry"/>
                </mxCell>
                <mxCell id="113" value="" style="verticalLabelPosition=bottom;html=1;verticalAlign=top;strokeWidth=1;align=center;outlineConnect=0;dashed=0;outlineConnect=0;shape=mxgraph.aws3d.application_server;fillColor=#ECECEC;strokeColor=#5E5E5E;aspect=fixed;rounded=0;" vertex="1" parent="1">
                    <mxGeometry x="-129" y="1330" width="123" height="124" as="geometry"/>
                </mxCell>
                <mxCell id="114" value="" style="verticalLabelPosition=bottom;html=1;verticalAlign=top;strokeWidth=1;align=center;outlineConnect=0;dashed=0;outlineConnect=0;shape=mxgraph.aws3d.application;fillColor=#4286c5;strokeColor=#57A2D8;aspect=fixed;rounded=0;" vertex="1" parent="1">
                    <mxGeometry x="180" y="1316" width="41.45" height="46" as="geometry"/>
                </mxCell>
                <mxCell id="115" value="ASG/EKS" style="text;html=1;strokeColor=none;fillColor=none;align=center;verticalAlign=middle;whiteSpace=wrap;fontStyle=3;fontSize=30;fontColor=#FFD966;rotation=-30;rounded=0;" vertex="1" parent="1">
                    <mxGeometry x="1" y="1415" width="60" height="30" as="geometry"/>
                </mxCell>
                <mxCell id="116" value="" style="verticalLabelPosition=bottom;html=1;verticalAlign=top;strokeWidth=1;dashed=0;shape=mxgraph.aws3d.elasticLoadBalancing;fillColor=#ECECEC;strokeColor=#5E5E5E;aspect=fixed;shadow=0;comic=0;fontSize=12;rounded=0;flipH=1;" vertex="1" parent="1">
                    <mxGeometry x="197.73000000000002" y="1466.88" width="92" height="88.17" as="geometry"/>
                </mxCell>
                <mxCell id="117" value="" style="endArrow=none;html=1;labelBackgroundColor=none;strokeWidth=5;fontFamily=Verdana;fontSize=12;startArrow=none;exitX=1.027;exitY=0.332;exitDx=0;exitDy=0;exitPerimeter=0;rounded=0;strokeColor=#E3E3E3;entryX=0.677;entryY=0.775;entryDx=0;entryDy=0;entryPerimeter=0;" edge="1" parent="1" source="116">
                    <mxGeometry width="50" height="100" relative="1" as="geometry">
                        <mxPoint x="104.03000000000003" y="1762.96" as="sourcePoint"/>
                        <mxPoint x="214.54899999999998" y="1401.005" as="targetPoint"/>
                        <Array as="points">
                            <mxPoint x="161.73000000000002" y="1475.88"/>
                            <mxPoint x="251.73000000000002" y="1421.88"/>
                        </Array>
                    </mxGeometry>
                </mxCell>
                <mxCell id="118" value="" style="endArrow=none;html=1;labelBackgroundColor=none;strokeWidth=5;fontFamily=Verdana;fontSize=12;startArrow=none;entryX=0.466;entryY=0.476;entryDx=0;entryDy=0;entryPerimeter=0;rounded=0;strokeColor=#E3E3E3;exitX=0.576;exitY=0.918;exitDx=0;exitDy=0;exitPerimeter=0;" edge="1" parent="1">
                    <mxGeometry width="50" height="100" relative="1" as="geometry">
                        <mxPoint x="139.80200000000013" y="1468.73" as="sourcePoint"/>
                        <mxPoint x="118.73000000000002" y="1454.88" as="targetPoint"/>
                    </mxGeometry>
                </mxCell>
                <mxCell id="119" value="" style="endArrow=none;html=1;labelBackgroundColor=none;strokeWidth=5;fontFamily=Verdana;fontSize=12;startArrow=none;entryX=0.666;entryY=0.669;entryDx=0;entryDy=0;entryPerimeter=0;rounded=0;strokeColor=#E3E3E3;exitX=0.495;exitY=0.966;exitDx=0;exitDy=0;exitPerimeter=0;" edge="1" parent="1" target="121">
                    <mxGeometry width="50" height="100" relative="1" as="geometry">
                        <mxPoint x="23.995000000000346" y="1514.65" as="sourcePoint"/>
                        <mxPoint x="328.03588000000013" y="1670.92" as="targetPoint"/>
                        <Array as="points">
                            <mxPoint x="58" y="1537"/>
                        </Array>
                    </mxGeometry>
                </mxCell>
                <mxCell id="120" value="" style="verticalLabelPosition=bottom;html=1;verticalAlign=top;strokeWidth=1;dashed=0;shape=mxgraph.aws3d.arrowhead;aspect=fixed;shadow=0;comic=0;fillColor=none;fontFamily=Verdana;fontSize=12;fontColor=#000000;flipV=1;direction=west;rounded=0;strokeColor=#D4D4D4;flipH=1;" vertex="1" parent="1">
                    <mxGeometry x="279" y="1549" width="39" height="23" as="geometry"/>
                </mxCell>
                <mxCell id="121" value="" style="verticalLabelPosition=bottom;html=1;verticalAlign=top;strokeWidth=1;dashed=0;shape=mxgraph.aws3d.secureConnection;fillColor=#000000;strokeColor=#ffffff;aspect=fixed;shadow=0;comic=0;fontSize=12;rounded=0;flipH=1;" vertex="1" parent="1">
                    <mxGeometry x="130.73000000000002" y="1458.8799999999999" width="56.99999999999999" height="34" as="geometry"/>
                </mxCell>
                <mxCell id="130" value="" style="verticalLabelPosition=bottom;html=1;verticalAlign=top;strokeWidth=1;dashed=1;shape=mxgraph.aws3d.dashedArrowlessEdge;aspect=fixed;shadow=0;comic=0;fontFamily=Verdana;fontSize=12;flipV=1;rounded=0;dashPattern=8 8;fillColor=#000000;opacity=20;" vertex="1" parent="1">
                    <mxGeometry x="-903" y="1632" width="1337.23" height="762.61" as="geometry"/>
                </mxCell>
                <mxCell id="131" value="" style="verticalLabelPosition=bottom;html=1;verticalAlign=top;strokeWidth=1;dashed=1;shape=mxgraph.aws3d.dashedArrowlessEdge;aspect=fixed;shadow=0;comic=0;fontFamily=Verdana;fontSize=12;flipV=0;rounded=0;dashPattern=8 8;fillColor=#000000;opacity=20;" vertex="1" parent="1">
                    <mxGeometry x="-1052" y="2309" width="147.29" height="84" as="geometry"/>
                </mxCell>
                <mxCell id="132" value="" style="verticalLabelPosition=bottom;html=1;verticalAlign=top;strokeWidth=1;dashed=1;shape=mxgraph.aws3d.dashedArrowlessEdge;aspect=fixed;shadow=0;comic=0;fontFamily=Verdana;fontSize=12;flipV=0;rounded=0;dashPattern=8 8;fillColor=#000000;opacity=20;" vertex="1" parent="1">
                    <mxGeometry x="307" y="1568" width="110.47" height="63" as="geometry"/>
                </mxCell>
                <mxCell id="107" value="" style="edgeStyle=isometricEdgeStyle;endArrow=none;html=1;labelBackgroundColor=none;strokeWidth=5;fontFamily=Verdana;fontSize=12;startArrow=none;entryX=0.734;entryY=0.34;entryDx=0;entryDy=0;entryPerimeter=0;exitX=0.739;exitY=0.788;exitDx=0;exitDy=0;exitPerimeter=0;rounded=0;strokeColor=#E3E3E3;dashed=1;dashPattern=8 8;" edge="1" parent="1" source="100">
                    <mxGeometry width="50" height="100" relative="1" as="geometry">
                        <mxPoint x="-628.81" y="2409.44" as="sourcePoint"/>
                        <mxPoint x="-1356.4720000000002" y="2122" as="targetPoint"/>
                        <Array as="points">
                            <mxPoint x="-1268.31" y="2180.44"/>
                        </Array>
                    </mxGeometry>
                </mxCell>
                <mxCell id="135" value="" style="rhombus;whiteSpace=wrap;html=1;fillColor=#BCBCBC;strokeColor=none;fillStyle=solid;opacity=65;align=center;verticalAlign=middle;fontFamily=Helvetica;fontSize=12;fontColor=default;" vertex="1" parent="1">
                    <mxGeometry x="200" y="1109" width="80.95" height="46" as="geometry"/>
                </mxCell>
                <mxCell id="136" value="" style="rhombus;whiteSpace=wrap;html=1;fillColor=#BCBCBC;strokeColor=none;fillStyle=solid;opacity=65;align=center;verticalAlign=middle;fontFamily=Helvetica;fontSize=12;fontColor=default;" vertex="1" parent="1">
                    <mxGeometry x="270" y="1068" width="80.95" height="46" as="geometry"/>
                </mxCell>
                <mxCell id="137" value="" style="rhombus;whiteSpace=wrap;html=1;fillColor=#BCBCBC;strokeColor=none;fillStyle=solid;opacity=65;align=center;verticalAlign=middle;fontFamily=Helvetica;fontSize=12;fontColor=default;" vertex="1" parent="1">
                    <mxGeometry x="340" y="1028" width="80.95" height="46" as="geometry"/>
                </mxCell>
                <mxCell id="138" value="Services layer" style="text;html=1;strokeColor=none;fillColor=none;align=center;verticalAlign=middle;whiteSpace=wrap;fontStyle=3;fontSize=40;fontColor=#7EA6E0;rotation=-30;rounded=0;" vertex="1" parent="1">
                    <mxGeometry x="-1951" y="1342" width="402" height="30" as="geometry"/>
                </mxCell>
                <mxCell id="123" value="" style="rhombus;whiteSpace=wrap;html=1;fillColor=#FEFEFE;strokeColor=none;fillStyle=solid;opacity=65;align=center;verticalAlign=middle;fontFamily=Helvetica;fontSize=12;fontColor=default;" vertex="1" parent="1">
                    <mxGeometry x="-331" y="794" width="1332.07" height="757" as="geometry"/>
                </mxCell>
                <mxCell id="105" value="" style="rhombus;whiteSpace=wrap;html=1;fillColor=#FEFEFE;strokeColor=none;fillStyle=solid;opacity=65;align=center;verticalAlign=middle;fontFamily=Helvetica;fontSize=12;fontColor=default;movable=1;resizable=1;rotatable=1;deletable=1;editable=1;locked=0;connectable=1;" vertex="1" parent="1">
                    <mxGeometry x="-964" y="1191" width="1332.07" height="757" as="geometry"/>
                </mxCell>
                <mxCell id="134" value="Incremental deliveries" style="text;html=1;strokeColor=none;fillColor=none;align=center;verticalAlign=middle;whiteSpace=wrap;fontStyle=3;fontSize=40;fontColor=#7EA6E0;rotation=-30;rounded=0;" vertex="1" parent="1">
                    <mxGeometry x="-996" y="1363" width="696" height="30" as="geometry"/>
                </mxCell>
                <mxCell id="139" value="" style="verticalLabelPosition=bottom;html=1;verticalAlign=top;strokeWidth=1;align=center;outlineConnect=0;dashed=0;outlineConnect=0;shape=mxgraph.aws3d.ebs2;fillColor=#ECECEC;strokeColor=#5E5E5E;aspect=fixed;" vertex="1" parent="1">
                    <mxGeometry x="-1622" y="1840" width="92" height="60" as="geometry"/>
                </mxCell>
                <mxCell id="166" value="" style="group" vertex="1" connectable="0" parent="1">
                    <mxGeometry x="-1525.939881604791" y="1388" width="177.37976320958205" height="122.86538105676664" as="geometry"/>
                </mxCell>
                <mxCell id="39" value="SNS" style="text;html=1;strokeColor=none;fillColor=none;align=center;verticalAlign=middle;whiteSpace=wrap;fontStyle=3;fontSize=20;fontColor=#CCCCCC;rotation=30;rounded=0;" vertex="1" parent="166">
                    <mxGeometry x="-5.060118395208974" y="48" width="187.5" height="30" as="geometry"/>
                </mxCell>
                <mxCell id="140" value="" style="verticalLabelPosition=bottom;html=1;verticalAlign=top;strokeWidth=1;align=center;outlineConnect=0;dashed=0;outlineConnect=0;shape=mxgraph.aws3d.workflowService;fillColor=#ECECEC;strokeColor=#5E5E5E;aspect=fixed;" vertex="1" parent="166">
                    <mxGeometry x="81.93988160479103" width="85.21" height="69.4" as="geometry"/>
                </mxCell>
                <mxCell id="142" value="" style="ellipse;whiteSpace=wrap;html=1;strokeColor=none;fillColor=light-dark(#5e5e5e, #ededed);" vertex="1" parent="166">
                    <mxGeometry x="105.93988160479103" y="2" width="37" height="21" as="geometry"/>
                </mxCell>
                <mxCell id="144" value="" style="ellipse;whiteSpace=wrap;html=1;fillColor=none;strokeColor=#FFFFFF;" vertex="1" parent="166">
                    <mxGeometry x="109.93988160479103" y="4" width="30" height="16" as="geometry"/>
                </mxCell>
                <mxCell id="143" value="" style="ellipse;whiteSpace=wrap;html=1;fillColor=light-dark(#5e5e5e, #ededed);strokeColor=#FFFFFF;" vertex="1" parent="166">
                    <mxGeometry x="107.93988160479103" y="10" width="6" height="4" as="geometry"/>
                </mxCell>
                <mxCell id="147" value="" style="ellipse;whiteSpace=wrap;html=1;fillColor=light-dark(#5e5e5e, #ededed);strokeColor=none;" vertex="1" parent="166">
                    <mxGeometry x="128.93988160479103" y="5" width="12" height="14" as="geometry"/>
                </mxCell>
                <mxCell id="148" value="" style="ellipse;whiteSpace=wrap;html=1;fillColor=light-dark(#5e5e5e, #ededed);strokeColor=#FFFFFF;" vertex="1" parent="166">
                    <mxGeometry x="133.93988160479103" y="6" width="4.5" height="3" as="geometry"/>
                </mxCell>
                <mxCell id="149" value="" style="ellipse;whiteSpace=wrap;html=1;fillColor=light-dark(#5e5e5e, #ededed);strokeColor=#FFFFFF;" vertex="1" parent="166">
                    <mxGeometry x="133.93988160479103" y="10" width="4.5" height="3" as="geometry"/>
                </mxCell>
                <mxCell id="151" value="" style="ellipse;whiteSpace=wrap;html=1;fillColor=light-dark(#5e5e5e, #ededed);strokeColor=#FFFFFF;" vertex="1" parent="166">
                    <mxGeometry x="133.93988160479103" y="14" width="4.5" height="3" as="geometry"/>
                </mxCell>
                <mxCell id="152" value="" style="ellipse;whiteSpace=wrap;html=1;fillColor=light-dark(#5e5e5e, #ededed);strokeColor=#FFFFFF;" vertex="1" parent="166">
                    <mxGeometry x="117.93988160479103" y="8" width="6" height="2" as="geometry"/>
                </mxCell>
                <mxCell id="153" value="" style="endArrow=none;html=1;exitX=0;exitY=0.5;exitDx=0;exitDy=0;strokeColor=#FFFFFF;" edge="1" parent="166" source="152">
                    <mxGeometry width="50" height="50" relative="1" as="geometry">
                        <mxPoint x="122.29290579831763" y="3" as="sourcePoint"/>
                        <mxPoint x="119.93988160479103" y="14" as="targetPoint"/>
                    </mxGeometry>
                </mxCell>
                <mxCell id="154" value="" style="endArrow=none;html=1;exitX=1;exitY=0.5;exitDx=0;exitDy=0;strokeColor=#FFFFFF;" edge="1" parent="166" source="152">
                    <mxGeometry width="50" height="50" relative="1" as="geometry">
                        <mxPoint x="123.93988160479103" y="9" as="sourcePoint"/>
                        <mxPoint x="121.93988160479103" y="14" as="targetPoint"/>
                    </mxGeometry>
                </mxCell>
                <mxCell id="155" value="" style="endArrow=none;html=1;strokeColor=#FFFFFF;" edge="1" parent="166">
                    <mxGeometry width="50" height="50" relative="1" as="geometry">
                        <mxPoint x="119.93988160479103" y="14" as="sourcePoint"/>
                        <mxPoint x="119.93988160479103" y="16" as="targetPoint"/>
                    </mxGeometry>
                </mxCell>
                <mxCell id="156" value="" style="endArrow=none;html=1;strokeColor=#FFFFFF;" edge="1" parent="166">
                    <mxGeometry width="50" height="50" relative="1" as="geometry">
                        <mxPoint x="121.93988160479103" y="14" as="sourcePoint"/>
                        <mxPoint x="121.93988160479103" y="15" as="targetPoint"/>
                    </mxGeometry>
                </mxCell>
                <mxCell id="157" value="" style="endArrow=none;html=1;strokeColor=#FFFFFF;" edge="1" parent="166">
                    <mxGeometry width="50" height="50" relative="1" as="geometry">
                        <mxPoint x="121.93988160479103" y="15" as="sourcePoint"/>
                        <mxPoint x="119.93988160479103" y="16" as="targetPoint"/>
                    </mxGeometry>
                </mxCell>
                <mxCell id="158" value="" style="endArrow=none;html=1;exitX=0;exitY=0.5;exitDx=0;exitDy=0;entryX=0.233;entryY=0.5;entryDx=0;entryDy=0;entryPerimeter=0;strokeColor=#FFFFFF;" edge="1" parent="166" target="144">
                    <mxGeometry width="50" height="50" relative="1" as="geometry">
                        <mxPoint x="113.93988160479103" y="12" as="sourcePoint"/>
                        <mxPoint x="115.93988160479103" y="17" as="targetPoint"/>
                    </mxGeometry>
                </mxCell>
                <mxCell id="159" value="" style="endArrow=none;html=1;exitX=0;exitY=0.5;exitDx=0;exitDy=0;entryX=-0.001;entryY=0.61;entryDx=0;entryDy=0;entryPerimeter=0;strokeColor=#FFFFFF;" edge="1" parent="166" target="149">
                    <mxGeometry width="50" height="50" relative="1" as="geometry">
                        <mxPoint x="123.93988160479103" y="12" as="sourcePoint"/>
                        <mxPoint x="126.93988160479103" y="12" as="targetPoint"/>
                    </mxGeometry>
                </mxCell>
                <mxCell id="161" value="" style="endArrow=none;html=1;exitX=0.175;exitY=0.166;exitDx=0;exitDy=0;exitPerimeter=0;entryX=0.165;entryY=0.816;entryDx=0;entryDy=0;entryPerimeter=0;strokeColor=#FFFFFF;" edge="1" parent="166" target="147">
                    <mxGeometry width="50" height="50" relative="1" as="geometry">
                        <mxPoint x="130.93988160479103" y="12" as="sourcePoint"/>
                        <mxPoint x="130.93988160479103" y="16" as="targetPoint"/>
                    </mxGeometry>
                </mxCell>
                <mxCell id="163" value="" style="endArrow=none;html=1;exitX=0.165;exitY=0.181;exitDx=0;exitDy=0;exitPerimeter=0;strokeColor=#FFFFFF;" edge="1" parent="166" source="147">
                    <mxGeometry width="50" height="50" relative="1" as="geometry">
                        <mxPoint x="130.93988160479103" y="8" as="sourcePoint"/>
                        <mxPoint x="130.93988160479103" y="12" as="targetPoint"/>
                    </mxGeometry>
                </mxCell>
                <mxCell id="164" value="" style="endArrow=none;html=1;exitX=0;exitY=0.5;exitDx=0;exitDy=0;entryX=0.233;entryY=0.5;entryDx=0;entryDy=0;entryPerimeter=0;strokeColor=#FFFFFF;" edge="1" parent="166">
                    <mxGeometry width="50" height="50" relative="1" as="geometry">
                        <mxPoint x="130.93988160479103" y="16" as="sourcePoint"/>
                        <mxPoint x="133.93988160479103" y="16" as="targetPoint"/>
                    </mxGeometry>
                </mxCell>
                <mxCell id="165" value="" style="endArrow=none;html=1;entryX=0.233;entryY=0.5;entryDx=0;entryDy=0;entryPerimeter=0;strokeColor=#FFFFFF;" edge="1" parent="166">
                    <mxGeometry width="50" height="50" relative="1" as="geometry">
                        <mxPoint x="130.93988160479103" y="8" as="sourcePoint"/>
                        <mxPoint x="133.93988160479103" y="8" as="targetPoint"/>
                    </mxGeometry>
                </mxCell>
                <mxCell id="167" value="" style="verticalLabelPosition=bottom;html=1;verticalAlign=top;strokeWidth=1;align=center;outlineConnect=0;dashed=0;outlineConnect=0;shape=mxgraph.aws3d.application;fillColor=#4286c5;strokeColor=#57A2D8;aspect=fixed;" vertex="1" parent="1">
                    <mxGeometry x="-1266" y="878" width="62" height="68.8" as="geometry"/>
                </mxCell>
            </root>
        </mxGraphModel>
    </diagram>
</mxfile>